<svg width="117" height="81" viewBox="0 0 117 81" fill="none" xmlns="http://www.w3.org/2000/svg">
<path d="M109.688 33.1875C105.293 33.1875 101.399 35.1655 98.7188 38.2331C96.0387 35.1655 92.1448 33.1875 87.75 33.1875H84.0938V22.2188C84.0938 10.1019 74.2731 0.28125 62.1562 0.28125H21.9375C9.82069 0.28125 0 10.1019 0 22.2188V62.4375C0 72.5324 8.18634 80.7188 18.2812 80.7188H87.75C97.8449 80.7188 106.031 72.5324 106.031 62.4375V54.6095C112.327 52.9788 117 47.3079 117 40.5V36.8438C117 34.8255 115.362 33.1875 113.344 33.1875H109.688ZM84.0938 50.0684C86.0023 52.2366 88.5178 53.8599 91.4062 54.6095V58.7812C87.3661 58.7812 84.0938 55.5089 84.0938 51.4688V50.0684ZM3.65625 62.4375V51.4688H14.625V76.547C8.32894 74.9126 3.65625 69.2454 3.65625 62.4375ZM18.2812 51.4688H29.25V77.0625H18.2812V51.4688ZM58.5 77.0625H47.5312V51.4688H51.1875C55.2277 51.4688 58.5 54.7411 58.5 58.7812V77.0625ZM43.875 77.0625H32.9062V51.4688H43.875V77.0625ZM113.344 40.5C113.344 45.4688 109.958 49.8125 105.114 51.0702L102.375 51.7795V62.4375C102.375 70.5142 95.8267 77.0625 87.75 77.0625H62.1562V58.7812C62.1562 52.7228 57.2459 47.8125 51.1875 47.8125H3.65625V22.2188C3.65625 12.1238 11.8426 3.9375 21.9375 3.9375H62.1562C72.2512 3.9375 80.4375 12.1238 80.4375 22.2188V51.4688C80.4375 57.5272 85.3478 62.4375 91.4062 62.4375H95.0625V51.7795L92.324 51.0702C87.4794 49.8125 84.0938 45.4688 84.0938 40.5V36.8438H87.75C90.909 36.8438 93.8267 38.1929 95.9656 40.6389L98.7188 43.787L101.472 40.6389C103.611 38.1929 106.529 36.8438 109.688 36.8438H113.344V40.5ZM21.9375 33.1875C21.9375 35.2057 20.2995 36.8438 18.2812 36.8438C16.263 36.8438 14.625 35.2057 14.625 33.1875C14.625 31.1693 16.263 29.5312 18.2812 29.5312C20.2995 29.5312 21.9375 31.1693 21.9375 33.1875ZM47.5312 33.1875C47.5312 35.2057 45.8932 36.8438 43.875 36.8438C41.8568 36.8438 40.2188 35.2057 40.2188 33.1875C40.2188 31.1693 41.8568 29.5312 43.875 29.5312C45.8932 29.5312 47.5312 31.1693 47.5312 33.1875Z" fill="#0B1719"/>
</svg>
