<svg width="19" height="19" viewBox="0 0 19 19" fill="none" xmlns="http://www.w3.org/2000/svg">
<path d="M11.4342 1.89955C12.9037 7.36454 12.219 10.2494 9.38009 10.5543C4.38821 10.5543 2.81218 13.6118 3.47439 15.1445C4.13661 16.6773 6.21624 17.8822 7.91958 18.1737C9.62291 18.4652 12.3835 18.4881 15.8303 15.1445C19.277 11.8009 16.8287 6.40499 15.8303 4.98997C15.1647 4.04662 13.6993 3.01648 11.4342 1.89955Z" fill="#D8D8D8"/>
<mask id="mask0_5_121" style="mask-type:luminance" maskUnits="userSpaceOnUse" x="3" y="1" width="15" height="18">
<path d="M11.4342 1.89955C12.9037 7.36454 12.219 10.2494 9.38009 10.5543C4.38821 10.5543 2.81218 13.6118 3.47439 15.1445C4.13661 16.6773 6.21624 17.8822 7.91958 18.1737C9.62291 18.4652 12.3835 18.4881 15.8303 15.1445C19.277 11.8009 16.8287 6.40499 15.8303 4.98997C15.1647 4.04662 13.6993 3.01648 11.4342 1.89955Z" fill="white"/>
</mask>
<g mask="url(#mask0_5_121)">
<path d="M19.1872 0.0252533H-0.426758V19.6392H19.1872V0.0252533Z" fill="#FFA0A0"/>
</g>
<path d="M9.38023 18.822C4.41534 18.822 0.390503 14.7971 0.390503 9.83222C0.390503 4.86734 4.41534 0.842499 9.38023 0.842499C14.3451 0.842499 18.37 4.86734 18.37 9.83222C18.37 14.7971 14.3451 18.822 9.38023 18.822ZM9.38023 17.3836C13.5507 17.3836 16.9316 14.0027 16.9316 9.83222C16.9316 5.66172 13.5507 2.28085 9.38023 2.28085C5.20972 2.28085 1.82886 5.66172 1.82886 9.83222C1.82886 14.0027 5.20972 17.3836 9.38023 17.3836ZM8.56298 9.01498C8.56298 8.56362 8.92887 8.19773 9.38023 8.19773C9.83158 8.19773 10.1975 8.56362 10.1975 9.01498V13.1012C10.1975 13.5526 9.83158 13.9185 9.38023 13.9185C8.92887 13.9185 8.56298 13.5526 8.56298 13.1012V9.01498ZM9.38023 7.38048C8.92887 7.38048 8.56298 7.01459 8.56298 6.56323C8.56298 6.11188 8.92887 5.74599 9.38023 5.74599C9.83158 5.74599 10.1975 6.11188 10.1975 6.56323C10.1975 7.01459 9.83158 7.38048 9.38023 7.38048Z" fill="black"/>
<mask id="mask1_5_121" style="mask-type:luminance" maskUnits="userSpaceOnUse" x="0" y="0" width="19" height="19">
<path d="M9.38023 18.822C4.41534 18.822 0.390503 14.7971 0.390503 9.83222C0.390503 4.86734 4.41534 0.842499 9.38023 0.842499C14.3451 0.842499 18.37 4.86734 18.37 9.83222C18.37 14.7971 14.3451 18.822 9.38023 18.822ZM9.38023 17.3836C13.5507 17.3836 16.9316 14.0027 16.9316 9.83222C16.9316 5.66172 13.5507 2.28085 9.38023 2.28085C5.20972 2.28085 1.82886 5.66172 1.82886 9.83222C1.82886 14.0027 5.20972 17.3836 9.38023 17.3836ZM8.56298 9.01498C8.56298 8.56362 8.92887 8.19773 9.38023 8.19773C9.83158 8.19773 10.1975 8.56362 10.1975 9.01498V13.1012C10.1975 13.5526 9.83158 13.9185 9.38023 13.9185C8.92887 13.9185 8.56298 13.5526 8.56298 13.1012V9.01498ZM9.38023 7.38048C8.92887 7.38048 8.56298 7.01459 8.56298 6.56323C8.56298 6.11188 8.92887 5.74599 9.38023 5.74599C9.83158 5.74599 10.1975 6.11188 10.1975 6.56323C10.1975 7.01459 9.83158 7.38048 9.38023 7.38048Z" fill="white"/>
</mask>
<g mask="url(#mask1_5_121)">
<path d="M19.1871 0.025238H-0.42688V19.6392H19.1871V0.025238Z" fill="#AA3FEC"/>
</g>
</svg>
