<svg width="76" height="53" viewBox="0 0 76 53" fill="none" xmlns="http://www.w3.org/2000/svg">
<g filter="url(#filter0_d_13_226)">
<mask id="path-1-outside-1_13_226" maskUnits="userSpaceOnUse" x="0" y="15.6659" width="63" height="35" fill="black">
<rect fill="white" y="15.6659" width="63" height="35"/>
<path d="M8.84263 25.8894C9.071 26.1779 9.18519 26.6046 9.18519 27.1695C9.18519 27.7224 8.96884 28.1731 8.53614 28.5217C8.11546 28.8582 7.53252 29.0265 6.78732 29.0265C6.35463 29.0265 5.80174 28.9784 5.12865 28.8822C3.80652 28.6779 2.95315 28.5757 2.56853 28.5757C2.19593 28.5757 1.9315 28.5878 1.77525 28.6118C1.619 28.6238 1.41467 28.6419 1.16226 28.6659L3.34378 16.7667H7.29214L5.48923 26.6827C5.64548 26.7067 5.79573 26.7188 5.93996 26.7188H6.39068C7.40031 26.7188 8.21763 26.4423 8.84263 25.8894ZM14.3218 29.0265C11.6775 29.0265 10.3554 27.7825 10.3554 25.2945C10.3554 23.5276 10.8422 22.0733 11.8157 20.9314C12.8494 19.7175 14.2617 19.1105 16.0526 19.1105C17.3507 19.1105 18.3302 19.411 18.9913 20.012C19.6524 20.6129 19.9829 21.5444 19.9829 22.8065C19.9829 24.7296 19.4661 26.25 18.4324 27.3678C17.4228 28.4736 16.0526 29.0265 14.3218 29.0265ZM14.7905 21.1838C14.6463 21.5084 14.5141 21.917 14.3939 22.4098C14.2857 22.8906 14.1595 23.5156 14.0153 24.2848C13.871 25.0541 13.7989 25.9135 13.7989 26.863C13.7989 27.1755 13.847 27.4339 13.9432 27.6382C14.0513 27.8426 14.2436 27.9447 14.5201 27.9447C14.7965 27.9447 15.0189 27.8786 15.1872 27.7464C15.3675 27.6142 15.5237 27.3918 15.6559 27.0793C15.8963 26.5264 16.1127 25.7392 16.305 24.7175C16.4973 23.6839 16.5994 22.9447 16.6115 22.5C16.6355 22.0552 16.6475 21.6706 16.6475 21.3461C16.6475 21.0096 16.5994 20.7331 16.5033 20.5168C16.4071 20.3004 16.2208 20.1922 15.9444 20.1922C15.68 20.1922 15.4576 20.2764 15.2773 20.4446C15.097 20.6129 14.9348 20.8593 14.7905 21.1838ZM27.4647 19.7776C27.8613 19.3329 28.4022 19.1105 29.0873 19.1105C29.508 19.1105 29.8806 19.2247 30.2051 19.4531C30.5296 19.6814 30.6919 20.012 30.6919 20.4446C30.6919 20.8653 30.6258 21.304 30.4935 21.7608C30.3613 22.2175 30.1931 22.6803 29.9887 23.149C29.5801 24.0625 29.0933 24.8978 28.5284 25.655C27.7351 26.7488 26.9538 27.5842 26.1846 28.1611C25.4274 28.738 24.6341 29.0265 23.8048 29.0265C23.1317 29.0265 22.5908 28.9483 22.1822 28.7921C22.11 26.268 22.0259 24.5553 21.9297 23.6538C21.8456 22.7524 21.7675 22.0552 21.6954 21.5625C21.5752 20.6009 21.3348 20.0059 20.9742 19.7776C21.2507 19.5372 21.5211 19.3689 21.7855 19.2728C22.062 19.1646 22.4766 19.1105 23.0295 19.1105C23.5944 19.1105 24.0752 19.3329 24.4718 19.7776C24.8685 20.2103 25.1029 20.8172 25.175 21.5985C25.2591 22.3677 25.3012 23.2211 25.3012 24.1586C25.3012 25.0961 25.2651 26.1298 25.193 27.2596C25.5656 26.9952 25.9502 26.4603 26.3469 25.655C26.8877 24.5372 27.2543 23.3053 27.4466 21.9591C27.5067 21.5504 27.5368 21.1298 27.5368 20.6971C27.5368 20.2644 27.5127 19.9579 27.4647 19.7776ZM8.33782 41.3365C8.51811 40.9759 8.60826 40.6273 8.60826 40.2908C8.60826 39.9542 8.59023 39.6958 8.55417 39.5155C8.51811 39.3232 8.45801 39.155 8.37388 39.0107C8.19359 38.6982 7.92315 38.542 7.56257 38.542C7.11786 38.542 6.71521 38.7042 6.35463 39.0288C5.97001 39.3653 5.7777 39.798 5.7777 40.3268C5.7777 40.6634 5.89188 40.9639 6.12025 41.2283C6.36064 41.4807 6.66112 41.7271 7.0217 41.9675C7.38228 42.2079 7.7669 42.4483 8.17556 42.6887C8.58422 42.929 8.96884 43.1935 9.32942 43.4819C10.1588 44.143 10.5734 44.9182 10.5734 45.8077C10.5734 46.4086 10.4112 46.9675 10.0866 47.4844C9.77413 47.9892 9.35346 48.4279 8.82461 48.8005C7.67075 49.6178 6.33059 50.0265 4.80413 50.0265C3.56613 50.0265 2.62862 49.8282 1.9916 49.4315C1.35457 49.0229 1.03606 48.512 1.03606 47.899C1.03606 46.8053 1.46275 46.1202 2.31612 45.8437C2.55651 45.7596 2.85699 45.7175 3.21757 45.7175C3.59017 45.7175 3.98681 45.7957 4.40749 45.9519C4.21518 46.4447 4.11902 46.9135 4.11902 47.3582C4.11902 48.3197 4.46158 48.8005 5.14668 48.8005C5.5914 48.8005 5.99405 48.6382 6.35463 48.3137C6.72723 47.9892 6.91353 47.6466 6.91353 47.2861C6.91353 46.9135 6.79333 46.5949 6.55295 46.3305C6.32458 46.0661 6.03611 45.8317 5.68755 45.6274C5.33899 45.411 4.96038 45.2007 4.55172 44.9964C4.15508 44.792 3.78248 44.5456 3.43392 44.2572C2.6166 43.5961 2.20795 42.7367 2.20795 41.679C2.20795 40.9939 2.37622 40.3869 2.71276 39.8581C3.0493 39.3172 3.48801 38.8665 4.02888 38.5059C5.11062 37.7727 6.31256 37.4061 7.63469 37.4061C8.96884 37.4061 9.95443 37.6045 10.5915 38.0011C11.2405 38.3977 11.565 38.9326 11.565 39.6057C11.565 40.1946 11.3367 40.6754 10.8799 41.048C10.4833 41.3605 10.0446 41.5168 9.5638 41.5168C9.08302 41.5168 8.67436 41.4567 8.33782 41.3365ZM19.2426 46.619C19.5431 46.8233 19.6933 47.1538 19.6933 47.6106C19.6933 48.0553 19.5791 48.4219 19.3507 48.7104C19.1224 48.9988 18.8219 49.2392 18.4493 49.4315C17.6801 49.8282 16.8808 50.0265 16.0514 50.0265C15.2221 50.0265 14.561 49.9363 14.0682 49.756C13.5875 49.5757 13.1848 49.3173 12.8603 48.9808C12.2233 48.3438 11.9048 47.4423 11.9048 46.2764C11.9048 44.4615 12.3975 43.0012 13.3831 41.8954C14.4408 40.7055 15.8892 40.1105 17.7281 40.1105C18.87 40.1105 19.7233 40.3509 20.2883 40.8317C20.7089 41.1922 20.9193 41.667 20.9193 42.256C20.9193 44.3714 19.0923 45.4291 15.4384 45.4291C15.3904 45.7416 15.3663 46.03 15.3663 46.2945C15.3663 46.8474 15.4865 47.232 15.7269 47.4483C15.9793 47.6527 16.3339 47.7548 16.7906 47.7548C17.2474 47.7548 17.7161 47.6527 18.1969 47.4483C18.6897 47.232 19.0382 46.9555 19.2426 46.619ZM15.5646 44.6538C16.418 44.6538 17.0911 44.3894 17.5839 43.8605C18.0767 43.3557 18.3231 42.7007 18.3231 41.8954C18.3231 41.6189 18.269 41.4086 18.1608 41.2644C18.0647 41.1081 17.9144 41.03 17.7101 41.03C17.5058 41.03 17.3135 41.072 17.1332 41.1562C16.9649 41.2283 16.7906 41.3966 16.6103 41.661C16.1656 42.262 15.8171 43.2596 15.5646 44.6538ZM22.3116 49.125C22.0352 48.8125 21.8308 48.4099 21.6986 47.9171C21.5784 47.4243 21.5183 46.7752 21.5183 45.9699C21.5183 45.1646 21.6565 44.3954 21.933 43.6622C22.2094 42.929 22.6001 42.298 23.1049 41.7692C24.1385 40.6634 25.5087 40.1105 27.2155 40.1105C27.8285 40.1105 28.3573 40.2127 28.8021 40.417L31.885 40.1105L30.5509 47.1418C30.5148 47.2861 30.4968 47.4904 30.4968 47.7548C30.4968 48.0192 30.5749 48.2356 30.7312 48.4039C30.8994 48.5721 31.1038 48.6683 31.3441 48.6923C31.224 49.101 30.9415 49.4255 30.4968 49.6659C30.0641 49.9063 29.6013 50.0265 29.1085 50.0265C28.6158 50.0265 28.2011 49.9303 27.8645 49.738C27.54 49.5577 27.3297 49.3113 27.2335 48.9988C27.0412 49.2993 26.7407 49.5457 26.3321 49.738C25.9234 49.9303 25.4426 50.0265 24.8898 50.0265C24.3489 50.0265 23.8561 49.9544 23.4114 49.8101C22.9667 49.6659 22.6001 49.4375 22.3116 49.125ZM26.1157 41.8052C25.9835 42.0216 25.8573 42.3161 25.7371 42.6887C25.6169 43.0492 25.4547 43.7223 25.2503 44.7079C25.058 45.6815 24.9619 46.5168 24.9619 47.2139C24.9619 47.9111 25.016 48.3618 25.1241 48.5661C25.2323 48.7705 25.3825 48.8726 25.5749 48.8726C25.9595 48.8726 26.29 48.6923 26.5665 48.3317C26.8549 47.9591 27.0532 47.4483 27.1614 46.7993L28.1169 41.5168C27.8645 41.3004 27.5881 41.1922 27.2876 41.1922C26.9991 41.1922 26.7648 41.2403 26.5845 41.3365C26.4162 41.4326 26.26 41.5889 26.1157 41.8052ZM38.5004 44.5997C38.9331 43.8305 39.1495 43.0552 39.1495 42.274C39.1495 41.7572 38.9632 41.4987 38.5906 41.4987C38.3021 41.4987 38.0076 41.7451 37.7071 42.2379C37.3946 42.7307 37.1903 43.2956 37.0941 43.9327L36.1566 49.6659L32.4246 50.0265L34.2636 40.4711L37.2384 40.1105L36.9139 41.9314C37.5028 40.7175 38.4583 40.1105 39.7805 40.1105C40.4776 40.1105 41.0125 40.2908 41.3851 40.6514C41.7697 41.012 41.962 41.5648 41.962 42.31C41.962 43.0432 41.7156 43.6442 41.2228 44.1129C40.742 44.5817 40.087 44.8161 39.2576 44.8161C38.897 44.8161 38.6446 44.744 38.5004 44.5997ZM51.1114 42.1658C51.1114 42.6706 50.9011 43.0793 50.4804 43.3918C50.0598 43.7043 49.5069 43.8605 48.8218 43.8605C48.5333 43.8605 48.3049 43.8185 48.1367 43.7343C48.2689 43.4218 48.353 43.0733 48.3891 42.6887C48.4371 42.292 48.4612 42.0396 48.4612 41.9314C48.4612 41.4266 48.2869 41.1742 47.9383 41.1742C47.6979 41.1742 47.4395 41.3245 47.1631 41.6249C46.8987 41.9254 46.6523 42.31 46.4239 42.7788C45.9191 43.8605 45.6667 44.9483 45.6667 46.0421C45.6667 46.643 45.7809 47.0817 46.0092 47.3582C46.2376 47.6226 46.6042 47.7548 47.109 47.7548C47.8061 47.7548 48.4311 47.4664 48.984 46.8894C49.1403 46.7091 49.2605 46.5168 49.3446 46.3125C49.8013 46.5529 50.0297 47.0036 50.0297 47.6647C50.0297 48.3378 49.6571 48.8967 48.9119 49.3414C48.1427 49.7981 47.1451 50.0265 45.9191 50.0265C43.4791 50.0265 42.2592 48.7344 42.2592 46.1502C42.2592 44.2632 42.794 42.7788 43.8638 41.6971C44.8974 40.6394 46.3638 40.1105 48.2629 40.1105C50.1619 40.1105 51.1114 40.7956 51.1114 42.1658ZM60.6592 47.6647C60.6592 48.1935 60.9297 48.5361 61.4705 48.6923C61.3383 49.137 61.0138 49.4796 60.497 49.72C60.0643 49.9243 59.6075 50.0265 59.1268 50.0265C58.658 50.0265 58.2974 49.9604 58.045 49.8282C57.8046 49.708 57.6183 49.5457 57.4861 49.3414C57.2698 49.0289 57.1616 48.5781 57.1616 47.9892C57.1616 47.6406 57.2577 46.9856 57.4501 46.024L57.7025 44.6538C57.9068 43.6081 58.009 42.893 58.009 42.5084C58.009 41.8353 57.8227 41.4987 57.4501 41.4987C56.9813 41.4987 56.5967 41.8413 56.2962 42.5264C56.176 42.7908 56.0738 43.1214 55.9897 43.518L54.7637 49.6659L51.1399 50.0265L53.682 37.0456L57.3058 36.685L57.1616 37.4061C56.8251 39.2571 56.5125 40.4951 56.2241 41.1201C56.8972 40.447 57.8527 40.1105 59.0907 40.1105C60.4008 40.1105 61.1761 40.5432 61.4164 41.4086C61.5006 41.685 61.5427 41.9435 61.5427 42.1838C61.5427 42.4242 61.5306 42.6406 61.5066 42.8329C61.4946 43.0132 61.4585 43.2716 61.3984 43.6081L61.164 44.9062L60.7494 46.9435C60.6893 47.22 60.6592 47.4603 60.6592 47.6647Z"/>
</mask>
<path d="M8.84263 25.8894C9.071 26.1779 9.18519 26.6046 9.18519 27.1695C9.18519 27.7224 8.96884 28.1731 8.53614 28.5217C8.11546 28.8582 7.53252 29.0265 6.78732 29.0265C6.35463 29.0265 5.80174 28.9784 5.12865 28.8822C3.80652 28.6779 2.95315 28.5757 2.56853 28.5757C2.19593 28.5757 1.9315 28.5878 1.77525 28.6118C1.619 28.6238 1.41467 28.6419 1.16226 28.6659L3.34378 16.7667H7.29214L5.48923 26.6827C5.64548 26.7067 5.79573 26.7188 5.93996 26.7188H6.39068C7.40031 26.7188 8.21763 26.4423 8.84263 25.8894ZM14.3218 29.0265C11.6775 29.0265 10.3554 27.7825 10.3554 25.2945C10.3554 23.5276 10.8422 22.0733 11.8157 20.9314C12.8494 19.7175 14.2617 19.1105 16.0526 19.1105C17.3507 19.1105 18.3302 19.411 18.9913 20.012C19.6524 20.6129 19.9829 21.5444 19.9829 22.8065C19.9829 24.7296 19.4661 26.25 18.4324 27.3678C17.4228 28.4736 16.0526 29.0265 14.3218 29.0265ZM14.7905 21.1838C14.6463 21.5084 14.5141 21.917 14.3939 22.4098C14.2857 22.8906 14.1595 23.5156 14.0153 24.2848C13.871 25.0541 13.7989 25.9135 13.7989 26.863C13.7989 27.1755 13.847 27.4339 13.9432 27.6382C14.0513 27.8426 14.2436 27.9447 14.5201 27.9447C14.7965 27.9447 15.0189 27.8786 15.1872 27.7464C15.3675 27.6142 15.5237 27.3918 15.6559 27.0793C15.8963 26.5264 16.1127 25.7392 16.305 24.7175C16.4973 23.6839 16.5994 22.9447 16.6115 22.5C16.6355 22.0552 16.6475 21.6706 16.6475 21.3461C16.6475 21.0096 16.5994 20.7331 16.5033 20.5168C16.4071 20.3004 16.2208 20.1922 15.9444 20.1922C15.68 20.1922 15.4576 20.2764 15.2773 20.4446C15.097 20.6129 14.9348 20.8593 14.7905 21.1838ZM27.4647 19.7776C27.8613 19.3329 28.4022 19.1105 29.0873 19.1105C29.508 19.1105 29.8806 19.2247 30.2051 19.4531C30.5296 19.6814 30.6919 20.012 30.6919 20.4446C30.6919 20.8653 30.6258 21.304 30.4935 21.7608C30.3613 22.2175 30.1931 22.6803 29.9887 23.149C29.5801 24.0625 29.0933 24.8978 28.5284 25.655C27.7351 26.7488 26.9538 27.5842 26.1846 28.1611C25.4274 28.738 24.6341 29.0265 23.8048 29.0265C23.1317 29.0265 22.5908 28.9483 22.1822 28.7921C22.11 26.268 22.0259 24.5553 21.9297 23.6538C21.8456 22.7524 21.7675 22.0552 21.6954 21.5625C21.5752 20.6009 21.3348 20.0059 20.9742 19.7776C21.2507 19.5372 21.5211 19.3689 21.7855 19.2728C22.062 19.1646 22.4766 19.1105 23.0295 19.1105C23.5944 19.1105 24.0752 19.3329 24.4718 19.7776C24.8685 20.2103 25.1029 20.8172 25.175 21.5985C25.2591 22.3677 25.3012 23.2211 25.3012 24.1586C25.3012 25.0961 25.2651 26.1298 25.193 27.2596C25.5656 26.9952 25.9502 26.4603 26.3469 25.655C26.8877 24.5372 27.2543 23.3053 27.4466 21.9591C27.5067 21.5504 27.5368 21.1298 27.5368 20.6971C27.5368 20.2644 27.5127 19.9579 27.4647 19.7776ZM8.33782 41.3365C8.51811 40.9759 8.60826 40.6273 8.60826 40.2908C8.60826 39.9542 8.59023 39.6958 8.55417 39.5155C8.51811 39.3232 8.45801 39.155 8.37388 39.0107C8.19359 38.6982 7.92315 38.542 7.56257 38.542C7.11786 38.542 6.71521 38.7042 6.35463 39.0288C5.97001 39.3653 5.7777 39.798 5.7777 40.3268C5.7777 40.6634 5.89188 40.9639 6.12025 41.2283C6.36064 41.4807 6.66112 41.7271 7.0217 41.9675C7.38228 42.2079 7.7669 42.4483 8.17556 42.6887C8.58422 42.929 8.96884 43.1935 9.32942 43.4819C10.1588 44.143 10.5734 44.9182 10.5734 45.8077C10.5734 46.4086 10.4112 46.9675 10.0866 47.4844C9.77413 47.9892 9.35346 48.4279 8.82461 48.8005C7.67075 49.6178 6.33059 50.0265 4.80413 50.0265C3.56613 50.0265 2.62862 49.8282 1.9916 49.4315C1.35457 49.0229 1.03606 48.512 1.03606 47.899C1.03606 46.8053 1.46275 46.1202 2.31612 45.8437C2.55651 45.7596 2.85699 45.7175 3.21757 45.7175C3.59017 45.7175 3.98681 45.7957 4.40749 45.9519C4.21518 46.4447 4.11902 46.9135 4.11902 47.3582C4.11902 48.3197 4.46158 48.8005 5.14668 48.8005C5.5914 48.8005 5.99405 48.6382 6.35463 48.3137C6.72723 47.9892 6.91353 47.6466 6.91353 47.2861C6.91353 46.9135 6.79333 46.5949 6.55295 46.3305C6.32458 46.0661 6.03611 45.8317 5.68755 45.6274C5.33899 45.411 4.96038 45.2007 4.55172 44.9964C4.15508 44.792 3.78248 44.5456 3.43392 44.2572C2.6166 43.5961 2.20795 42.7367 2.20795 41.679C2.20795 40.9939 2.37622 40.3869 2.71276 39.8581C3.0493 39.3172 3.48801 38.8665 4.02888 38.5059C5.11062 37.7727 6.31256 37.4061 7.63469 37.4061C8.96884 37.4061 9.95443 37.6045 10.5915 38.0011C11.2405 38.3977 11.565 38.9326 11.565 39.6057C11.565 40.1946 11.3367 40.6754 10.8799 41.048C10.4833 41.3605 10.0446 41.5168 9.5638 41.5168C9.08302 41.5168 8.67436 41.4567 8.33782 41.3365ZM19.2426 46.619C19.5431 46.8233 19.6933 47.1538 19.6933 47.6106C19.6933 48.0553 19.5791 48.4219 19.3507 48.7104C19.1224 48.9988 18.8219 49.2392 18.4493 49.4315C17.6801 49.8282 16.8808 50.0265 16.0514 50.0265C15.2221 50.0265 14.561 49.9363 14.0682 49.756C13.5875 49.5757 13.1848 49.3173 12.8603 48.9808C12.2233 48.3438 11.9048 47.4423 11.9048 46.2764C11.9048 44.4615 12.3975 43.0012 13.3831 41.8954C14.4408 40.7055 15.8892 40.1105 17.7281 40.1105C18.87 40.1105 19.7233 40.3509 20.2883 40.8317C20.7089 41.1922 20.9193 41.667 20.9193 42.256C20.9193 44.3714 19.0923 45.4291 15.4384 45.4291C15.3904 45.7416 15.3663 46.03 15.3663 46.2945C15.3663 46.8474 15.4865 47.232 15.7269 47.4483C15.9793 47.6527 16.3339 47.7548 16.7906 47.7548C17.2474 47.7548 17.7161 47.6527 18.1969 47.4483C18.6897 47.232 19.0382 46.9555 19.2426 46.619ZM15.5646 44.6538C16.418 44.6538 17.0911 44.3894 17.5839 43.8605C18.0767 43.3557 18.3231 42.7007 18.3231 41.8954C18.3231 41.6189 18.269 41.4086 18.1608 41.2644C18.0647 41.1081 17.9144 41.03 17.7101 41.03C17.5058 41.03 17.3135 41.072 17.1332 41.1562C16.9649 41.2283 16.7906 41.3966 16.6103 41.661C16.1656 42.262 15.8171 43.2596 15.5646 44.6538ZM22.3116 49.125C22.0352 48.8125 21.8308 48.4099 21.6986 47.9171C21.5784 47.4243 21.5183 46.7752 21.5183 45.9699C21.5183 45.1646 21.6565 44.3954 21.933 43.6622C22.2094 42.929 22.6001 42.298 23.1049 41.7692C24.1385 40.6634 25.5087 40.1105 27.2155 40.1105C27.8285 40.1105 28.3573 40.2127 28.8021 40.417L31.885 40.1105L30.5509 47.1418C30.5148 47.2861 30.4968 47.4904 30.4968 47.7548C30.4968 48.0192 30.5749 48.2356 30.7312 48.4039C30.8994 48.5721 31.1038 48.6683 31.3441 48.6923C31.224 49.101 30.9415 49.4255 30.4968 49.6659C30.0641 49.9063 29.6013 50.0265 29.1085 50.0265C28.6158 50.0265 28.2011 49.9303 27.8645 49.738C27.54 49.5577 27.3297 49.3113 27.2335 48.9988C27.0412 49.2993 26.7407 49.5457 26.3321 49.738C25.9234 49.9303 25.4426 50.0265 24.8898 50.0265C24.3489 50.0265 23.8561 49.9544 23.4114 49.8101C22.9667 49.6659 22.6001 49.4375 22.3116 49.125ZM26.1157 41.8052C25.9835 42.0216 25.8573 42.3161 25.7371 42.6887C25.6169 43.0492 25.4547 43.7223 25.2503 44.7079C25.058 45.6815 24.9619 46.5168 24.9619 47.2139C24.9619 47.9111 25.016 48.3618 25.1241 48.5661C25.2323 48.7705 25.3825 48.8726 25.5749 48.8726C25.9595 48.8726 26.29 48.6923 26.5665 48.3317C26.8549 47.9591 27.0532 47.4483 27.1614 46.7993L28.1169 41.5168C27.8645 41.3004 27.5881 41.1922 27.2876 41.1922C26.9991 41.1922 26.7648 41.2403 26.5845 41.3365C26.4162 41.4326 26.26 41.5889 26.1157 41.8052ZM38.5004 44.5997C38.9331 43.8305 39.1495 43.0552 39.1495 42.274C39.1495 41.7572 38.9632 41.4987 38.5906 41.4987C38.3021 41.4987 38.0076 41.7451 37.7071 42.2379C37.3946 42.7307 37.1903 43.2956 37.0941 43.9327L36.1566 49.6659L32.4246 50.0265L34.2636 40.4711L37.2384 40.1105L36.9139 41.9314C37.5028 40.7175 38.4583 40.1105 39.7805 40.1105C40.4776 40.1105 41.0125 40.2908 41.3851 40.6514C41.7697 41.012 41.962 41.5648 41.962 42.31C41.962 43.0432 41.7156 43.6442 41.2228 44.1129C40.742 44.5817 40.087 44.8161 39.2576 44.8161C38.897 44.8161 38.6446 44.744 38.5004 44.5997ZM51.1114 42.1658C51.1114 42.6706 50.9011 43.0793 50.4804 43.3918C50.0598 43.7043 49.5069 43.8605 48.8218 43.8605C48.5333 43.8605 48.3049 43.8185 48.1367 43.7343C48.2689 43.4218 48.353 43.0733 48.3891 42.6887C48.4371 42.292 48.4612 42.0396 48.4612 41.9314C48.4612 41.4266 48.2869 41.1742 47.9383 41.1742C47.6979 41.1742 47.4395 41.3245 47.1631 41.6249C46.8987 41.9254 46.6523 42.31 46.4239 42.7788C45.9191 43.8605 45.6667 44.9483 45.6667 46.0421C45.6667 46.643 45.7809 47.0817 46.0092 47.3582C46.2376 47.6226 46.6042 47.7548 47.109 47.7548C47.8061 47.7548 48.4311 47.4664 48.984 46.8894C49.1403 46.7091 49.2605 46.5168 49.3446 46.3125C49.8013 46.5529 50.0297 47.0036 50.0297 47.6647C50.0297 48.3378 49.6571 48.8967 48.9119 49.3414C48.1427 49.7981 47.1451 50.0265 45.9191 50.0265C43.4791 50.0265 42.2592 48.7344 42.2592 46.1502C42.2592 44.2632 42.794 42.7788 43.8638 41.6971C44.8974 40.6394 46.3638 40.1105 48.2629 40.1105C50.1619 40.1105 51.1114 40.7956 51.1114 42.1658ZM60.6592 47.6647C60.6592 48.1935 60.9297 48.5361 61.4705 48.6923C61.3383 49.137 61.0138 49.4796 60.497 49.72C60.0643 49.9243 59.6075 50.0265 59.1268 50.0265C58.658 50.0265 58.2974 49.9604 58.045 49.8282C57.8046 49.708 57.6183 49.5457 57.4861 49.3414C57.2698 49.0289 57.1616 48.5781 57.1616 47.9892C57.1616 47.6406 57.2577 46.9856 57.4501 46.024L57.7025 44.6538C57.9068 43.6081 58.009 42.893 58.009 42.5084C58.009 41.8353 57.8227 41.4987 57.4501 41.4987C56.9813 41.4987 56.5967 41.8413 56.2962 42.5264C56.176 42.7908 56.0738 43.1214 55.9897 43.518L54.7637 49.6659L51.1399 50.0265L53.682 37.0456L57.3058 36.685L57.1616 37.4061C56.8251 39.2571 56.5125 40.4951 56.2241 41.1201C56.8972 40.447 57.8527 40.1105 59.0907 40.1105C60.4008 40.1105 61.1761 40.5432 61.4164 41.4086C61.5006 41.685 61.5427 41.9435 61.5427 42.1838C61.5427 42.4242 61.5306 42.6406 61.5066 42.8329C61.4946 43.0132 61.4585 43.2716 61.3984 43.6081L61.164 44.9062L60.7494 46.9435C60.6893 47.22 60.6592 47.4603 60.6592 47.6647Z" fill="url(#paint0_linear_13_226)"/>
<path d="M8.84263 25.8894L9.25839 25.5603L8.91077 25.1212L8.49129 25.4923L8.84263 25.8894ZM8.53614 28.5217L8.8674 28.9357L8.86879 28.9346L8.53614 28.5217ZM5.12865 28.8822L5.04766 29.4063L5.05366 29.4072L5.12865 28.8822ZM1.77525 28.6118L1.81592 29.1405L1.83599 29.139L1.85588 29.1359L1.77525 28.6118ZM1.16226 28.6659L0.640688 28.5703L0.514187 29.2603L1.21254 29.1938L1.16226 28.6659ZM3.34378 16.7667V16.2365H2.90189L2.8222 16.6711L3.34378 16.7667ZM7.29214 16.7667L7.81385 16.8616L7.92751 16.2365H7.29214V16.7667ZM5.48923 26.6827L4.96752 26.5878L4.87005 27.1239L5.4086 27.2068L5.48923 26.6827ZM8.42688 26.2186C8.55063 26.3749 8.65492 26.6634 8.65492 27.1695H9.71545C9.71545 26.5457 9.59137 25.9809 9.25839 25.5603L8.42688 26.2186ZM8.65492 27.1695C8.65492 27.561 8.51195 27.8602 8.20349 28.1087L8.86879 28.9346C9.42572 28.486 9.71545 27.8838 9.71545 27.1695H8.65492ZM8.20489 28.1076C7.90854 28.3447 7.4577 28.4962 6.78732 28.4962V29.5567C7.60734 29.5567 8.32239 29.3717 8.86739 28.9357L8.20489 28.1076ZM6.78732 28.4962C6.38967 28.4962 5.8642 28.4517 5.20364 28.3573L5.05366 29.4072C5.73927 29.5051 6.31959 29.5567 6.78732 29.5567V28.4962ZM5.20964 28.3582C3.89871 28.1556 3.00205 28.0455 2.56853 28.0455V29.106C2.90424 29.106 3.71433 29.2002 5.04766 29.4063L5.20964 28.3582ZM2.56853 28.0455C2.19527 28.0455 1.89483 28.0569 1.69462 28.0877L1.85588 29.1359C1.96817 29.1186 2.19659 29.106 2.56853 29.106V28.0455ZM1.73458 28.0831C1.57379 28.0955 1.3659 28.1138 1.11199 28.138L1.21254 29.1938C1.46343 29.1699 1.6642 29.1522 1.81592 29.1405L1.73458 28.0831ZM1.68383 28.7615L3.86535 16.8623L2.8222 16.6711L0.640688 28.5703L1.68383 28.7615ZM3.34378 17.297H7.29214V16.2365H3.34378V17.297ZM6.77042 16.6719L4.96752 26.5878L6.01094 26.7776L7.81385 16.8616L6.77042 16.6719ZM5.4086 27.2068C5.58902 27.2346 5.7663 27.249 5.93996 27.249V26.1885C5.82515 26.1885 5.70195 26.1789 5.56986 26.1586L5.4086 27.2068ZM5.93996 27.249H6.39068V26.1885H5.93996V27.249ZM6.39068 27.249C7.50126 27.249 8.45263 26.9424 9.19397 26.2866L8.49129 25.4923C7.98263 25.9422 7.29936 26.1885 6.39068 26.1885V27.249ZM11.8157 20.9314L12.2192 21.2755L12.2195 21.2752L11.8157 20.9314ZM18.9913 20.012L19.348 19.6196L18.9913 20.012ZM18.4324 27.3678L18.0431 27.0078L18.0408 27.0103L18.4324 27.3678ZM14.3939 22.4098L13.8786 22.2841L13.8766 22.2934L14.3939 22.4098ZM14.0153 24.2848L13.4941 24.1871L14.0153 24.2848ZM13.9432 27.6382L13.4634 27.864L13.4687 27.8753L13.4745 27.8863L13.9432 27.6382ZM15.1872 27.7464L14.8736 27.3188L14.8665 27.324L14.8596 27.3295L15.1872 27.7464ZM15.6559 27.0793L15.1696 26.8679L15.1676 26.8727L15.6559 27.0793ZM16.305 24.7175L16.8261 24.8156L16.8263 24.8145L16.305 24.7175ZM16.6115 22.5L16.082 22.4713L16.0816 22.4785L16.0814 22.4856L16.6115 22.5ZM16.5033 20.5168L16.0187 20.7321L16.0187 20.7321L16.5033 20.5168ZM15.2773 20.4446L15.6391 20.8323H15.6391L15.2773 20.4446ZM14.3218 28.4962C13.0736 28.4962 12.2361 28.202 11.7104 27.7073C11.1906 27.2183 10.8856 26.4482 10.8856 25.2945H9.82512C9.82512 26.6287 10.1812 27.7247 10.9836 28.4797C11.78 29.229 12.9257 29.5567 14.3218 29.5567V28.4962ZM10.8856 25.2945C10.8856 23.6302 11.3416 22.3048 12.2192 21.2755L11.4122 20.5874C10.3428 21.8417 9.82512 23.425 9.82512 25.2945H10.8856ZM12.2195 21.2752C13.1392 20.195 14.3956 19.6408 16.0526 19.6408V18.5802C14.1277 18.5802 12.5596 19.24 11.412 20.5877L12.2195 21.2752ZM16.0526 19.6408C17.2777 19.6408 18.1074 19.925 18.6346 20.4043L19.348 19.6196C18.5531 18.8969 17.4236 18.5802 16.0526 18.5802V19.6408ZM18.6346 20.4043C19.1456 20.8689 19.4526 21.6305 19.4526 22.8065H20.5132C20.5132 21.4583 20.1591 20.3569 19.348 19.6196L18.6346 20.4043ZM19.4526 22.8065C19.4526 24.6326 18.964 26.0119 18.0431 27.0078L18.8217 27.7278C19.9681 26.4882 20.5132 24.8265 20.5132 22.8065H19.4526ZM18.0408 27.0103C17.1476 27.9885 15.9291 28.4962 14.3218 28.4962V29.5567C16.176 29.5567 17.6979 28.9587 18.824 27.7253L18.0408 27.0103ZM14.306 20.9685C14.1447 21.3313 14.0035 21.7725 13.8787 22.2842L14.9091 22.5355C15.0246 22.0616 15.1479 21.6854 15.2751 21.3992L14.306 20.9685ZM13.8766 22.2934C13.7664 22.7829 13.6389 23.4148 13.4941 24.1871L14.5365 24.3826C14.6801 23.6164 14.805 22.9983 14.9112 22.5262L13.8766 22.2934ZM13.4941 24.1871C13.3427 24.9945 13.2687 25.8873 13.2687 26.863H14.3292C14.3292 25.9396 14.3994 25.1136 14.5365 24.3826L13.4941 24.1871ZM13.2687 26.863C13.2687 27.2254 13.3238 27.5674 13.4634 27.864L14.423 27.4125C14.3702 27.3004 14.3292 27.1256 14.3292 26.863H13.2687ZM13.4745 27.8863C13.6944 28.3016 14.0934 28.475 14.5201 28.475V27.4145C14.4458 27.4145 14.419 27.4007 14.4173 27.3998C14.4165 27.3994 14.4177 27.4 14.4187 27.4011C14.4196 27.402 14.4168 27.3995 14.4118 27.3901L13.4745 27.8863ZM14.5201 28.475C14.8803 28.475 15.2288 28.388 15.5148 28.1634L14.8596 27.3295C14.8089 27.3692 14.7127 27.4145 14.5201 27.4145V28.475ZM15.5007 28.174C15.7882 27.9632 15.9926 27.6444 16.1443 27.286L15.1676 26.8727C15.0548 27.1393 14.9467 27.2652 14.8736 27.3188L15.5007 28.174ZM16.1422 27.2908C16.4058 26.6846 16.6309 25.8525 16.8261 24.8156L15.7839 24.6194C15.5944 25.6258 15.3869 26.3683 15.1696 26.8679L16.1422 27.2908ZM16.8263 24.8145C17.0187 23.7803 17.1283 23.0048 17.1415 22.5143L16.0814 22.4856C16.0706 22.8846 15.9759 23.5875 15.7836 24.6205L16.8263 24.8145ZM17.141 22.5286C17.1653 22.0776 17.1778 21.6829 17.1778 21.3461H16.1173C16.1173 21.6583 16.1057 22.0329 16.082 22.4713L17.141 22.5286ZM17.1778 21.3461C17.1778 20.9644 17.124 20.6078 16.9879 20.3014L16.0187 20.7321C16.0749 20.8584 16.1173 21.0548 16.1173 21.3461H17.1778ZM16.9879 20.3014C16.8991 20.1018 16.757 19.9305 16.5577 19.8148C16.3639 19.7022 16.1502 19.662 15.9444 19.662V20.7225C16.015 20.7225 16.0327 20.7363 16.0252 20.7319C16.0215 20.7298 16.0172 20.7263 16.0143 20.7229C16.0117 20.7199 16.014 20.7214 16.0187 20.7321L16.9879 20.3014ZM15.9444 19.662C15.5563 19.662 15.2015 19.7901 14.9155 20.057L15.6391 20.8323C15.7137 20.7627 15.8037 20.7225 15.9444 20.7225V19.662ZM14.9155 20.057C14.6655 20.2903 14.4674 20.6052 14.306 20.9685L15.2751 21.3992C15.4021 21.1134 15.5285 20.9355 15.6391 20.8323L14.9155 20.057ZM27.4647 19.7776L27.0689 19.4246L26.8786 19.638L26.9523 19.9142L27.4647 19.7776ZM30.2051 19.4531L30.5102 19.0194L30.2051 19.4531ZM30.4935 21.7608L31.0029 21.9082L30.4935 21.7608ZM29.9887 23.149L30.4728 23.3656L30.4748 23.3609L29.9887 23.149ZM28.5284 25.655L28.1033 25.3379L28.0991 25.3437L28.5284 25.655ZM26.1846 28.1611L25.8664 27.7369L25.8632 27.7393L26.1846 28.1611ZM22.1822 28.7921L21.6521 28.8072L21.6622 29.161L21.9928 29.2874L22.1822 28.7921ZM21.9297 23.6538L21.4017 23.7031L21.4025 23.7101L21.9297 23.6538ZM21.6954 21.5625L21.1691 21.6282L21.1707 21.6392L21.6954 21.5625ZM20.9742 19.7776L20.6263 19.3774L20.089 19.8446L20.6905 20.2256L20.9742 19.7776ZM21.7855 19.2728L21.9668 19.7712L21.9787 19.7666L21.7855 19.2728ZM24.4718 19.7776L24.0761 20.1306L24.081 20.1359L24.4718 19.7776ZM25.175 21.5985L24.6469 21.6473L24.6479 21.6562L25.175 21.5985ZM25.193 27.2596L24.6638 27.2259L24.593 28.3357L25.4999 27.6921L25.193 27.2596ZM26.3469 25.655L26.8226 25.8893L26.8242 25.886L26.3469 25.655ZM27.4466 21.9591L26.922 21.8819L26.9217 21.8841L27.4466 21.9591ZM27.8604 20.1305C28.1409 19.816 28.5283 19.6408 29.0873 19.6408V18.5802C28.276 18.5802 27.5817 18.8497 27.0689 19.4246L27.8604 20.1305ZM29.0873 19.6408C29.4057 19.6408 29.6703 19.7251 29.8999 19.8867L30.5102 19.0194C30.0909 18.7243 29.6103 18.5802 29.0873 18.5802V19.6408ZM29.8999 19.8867C30.069 20.0057 30.1616 20.1663 30.1616 20.4446H31.2221C31.2221 19.8576 30.9902 19.3571 30.5102 19.0194L29.8999 19.8867ZM30.1616 20.4446C30.1616 20.8094 30.1043 21.1984 29.9842 21.6133L31.0029 21.9082C31.1472 21.4097 31.2221 20.9212 31.2221 20.4446H30.1616ZM29.9842 21.6133C29.8588 22.0465 29.6985 22.4878 29.5026 22.9371L30.4748 23.3609C30.6876 22.8727 30.8639 22.3885 31.0029 21.9082L29.9842 21.6133ZM29.5047 22.9325C29.111 23.8125 28.6436 24.6138 28.1034 25.338L28.9534 25.9721C29.543 25.1819 30.0491 24.3125 30.4728 23.3655L29.5047 22.9325ZM28.0991 25.3437C27.3254 26.4105 26.5799 27.2018 25.8664 27.7369L26.5028 28.5853C27.3278 27.9665 28.1448 27.0871 28.9576 25.9664L28.0991 25.3437ZM25.8632 27.7393C25.1841 28.2567 24.5013 28.4962 23.8048 28.4962V29.5567C24.767 29.5567 25.6707 29.2193 26.506 28.5829L25.8632 27.7393ZM23.8048 28.4962C23.1653 28.4962 22.6962 28.421 22.3715 28.2968L21.9928 29.2874C22.4854 29.4757 23.0981 29.5567 23.8048 29.5567V28.4962ZM22.7122 28.777C22.6402 26.2552 22.5557 24.5225 22.457 23.5976L21.4025 23.7101C21.4961 24.588 21.5799 26.2809 21.6521 28.8072L22.7122 28.777ZM22.4577 23.6045C22.3733 22.7 22.2942 21.9921 22.22 21.4857L21.1707 21.6392C21.2408 22.1184 21.3179 22.8047 21.4018 23.7031L22.4577 23.6045ZM22.2215 21.4967C22.1583 20.991 22.0604 20.5523 21.9166 20.1964C21.7746 19.845 21.5683 19.5262 21.2579 19.3296L20.6905 20.2256C20.7407 20.2573 20.8349 20.3501 20.9333 20.5937C21.0299 20.8328 21.1122 21.1724 21.1692 21.6282L22.2215 21.4967ZM21.3222 20.1777C21.5636 19.9678 21.7788 19.8394 21.9667 19.7711L21.6043 18.7744C21.2634 18.8984 20.9377 19.1066 20.6263 19.3774L21.3222 20.1777ZM21.9787 19.7666C22.1613 19.6951 22.4958 19.6408 23.0295 19.6408V18.5802C22.4575 18.5802 21.9626 18.634 21.5923 18.779L21.9787 19.7666ZM23.0295 19.6408C23.4341 19.6408 23.7738 19.7916 24.0761 20.1305L24.8676 19.4246C24.3766 18.8741 23.7547 18.5802 23.0295 18.5802V19.6408ZM24.081 20.1359C24.3766 20.4584 24.5819 20.9428 24.647 21.6472L25.703 21.5498C25.6238 20.6917 25.3604 19.9621 24.8627 19.4193L24.081 20.1359ZM24.6479 21.6562C24.7295 22.4028 24.7709 23.2365 24.7709 24.1586H25.8314C25.8314 23.2057 25.7887 22.3327 25.7021 21.5409L24.6479 21.6562ZM24.7709 24.1586C24.7709 25.0829 24.7354 26.1051 24.6638 27.2259L25.7222 27.2934C25.7949 26.1546 25.8314 25.1094 25.8314 24.1586H24.7709ZM25.4999 27.6921C25.9853 27.3476 26.4177 26.7112 26.8226 25.8893L25.8712 25.4207C25.4827 26.2094 25.146 26.6428 24.8861 26.8272L25.4999 27.6921ZM26.8242 25.886C27.391 24.7145 27.7723 23.4293 27.9716 22.0341L26.9217 21.8841C26.7364 23.1812 26.3844 24.3599 25.8695 25.4241L26.8242 25.886ZM27.9713 22.0362C28.0353 21.6009 28.067 21.1544 28.067 20.6971H27.0065C27.0065 21.1052 26.9782 21.5 26.922 21.8819L27.9713 22.0362ZM28.067 20.6971C28.067 20.2627 28.0446 19.8945 27.977 19.6409L26.9523 19.9142C26.9808 20.0212 27.0065 20.266 27.0065 20.6971H28.067ZM8.33782 41.3365L7.86354 41.0993L7.59591 41.6346L8.15947 41.8358L8.33782 41.3365ZM8.55417 39.5155L8.03295 39.6133L8.0342 39.6195L8.55417 39.5155ZM8.37388 39.0107L7.91456 39.2757L7.91585 39.2779L8.37388 39.0107ZM6.35463 39.0288L6.70384 39.4279L6.70936 39.4229L6.35463 39.0288ZM6.12025 41.2283L5.71893 41.5749L5.72736 41.5847L5.73626 41.594L6.12025 41.2283ZM8.17556 42.6887L8.44442 42.2316H8.44442L8.17556 42.6887ZM9.32942 43.4819L8.99816 43.896L8.9989 43.8966L9.32942 43.4819ZM10.0866 47.4844L9.63755 47.2024L9.63577 47.2053L10.0866 47.4844ZM8.8246 48.8005L8.5192 48.367L8.5181 48.3678L8.8246 48.8005ZM1.9916 49.4315L1.70525 49.8779L1.71132 49.8817L1.9916 49.4315ZM2.31612 45.8437L2.47958 46.3483L2.49129 46.3442L2.31612 45.8437ZM4.40749 45.9519L4.90147 46.1447L5.09744 45.6425L4.59212 45.4548L4.40749 45.9519ZM6.35463 48.3137L6.00631 47.9138L5.9999 47.9196L6.35463 48.3137ZM6.55295 46.3305L6.1515 46.6772L6.16058 46.6872L6.55295 46.3305ZM5.68755 45.6274L5.40782 46.0781L5.41939 46.0848L5.68755 45.6274ZM4.55172 44.9964L4.30887 45.4678L4.31458 45.4707L4.55172 44.9964ZM3.43392 44.2572L3.77202 43.8486L3.76739 43.8449L3.43392 44.2572ZM2.71276 39.8581L3.16015 40.1428L3.16299 40.1382L2.71276 39.8581ZM4.02888 38.5059L4.32303 38.9471L4.32639 38.9449L4.02888 38.5059ZM10.5915 38.0011L10.3112 38.4513L10.3149 38.4536L10.5915 38.0011ZM10.8799 41.048L11.2081 41.4646L11.2151 41.4589L10.8799 41.048ZM8.8121 41.5736C9.022 41.1538 9.13852 40.7244 9.13852 40.2908H8.07799C8.07799 40.5303 8.01423 40.798 7.86354 41.0993L8.8121 41.5736ZM9.13852 40.2908C9.13852 39.943 9.1205 39.6433 9.07414 39.4115L8.0342 39.6195C8.05996 39.7483 8.07799 39.9655 8.07799 40.2908H9.13852ZM9.07535 39.4178C9.02998 39.1759 8.9514 38.9484 8.83191 38.7435L7.91585 39.2779C7.96463 39.3615 8.00624 39.4706 8.03299 39.6133L9.07535 39.4178ZM8.83319 38.7457C8.55826 38.2692 8.11279 38.0117 7.56257 38.0117V39.0722C7.73352 39.0722 7.82891 39.1272 7.91457 39.2757L8.83319 38.7457ZM7.56257 38.0117C6.97451 38.0117 6.44826 38.2311 5.9999 38.6346L6.70936 39.4229C6.98215 39.1774 7.2612 39.0722 7.56257 39.0722V38.0117ZM6.00544 38.6297C5.50125 39.0709 5.24743 39.6512 5.24743 40.3268H6.30796C6.30796 39.9448 6.43876 39.6597 6.70381 39.4278L6.00544 38.6297ZM5.24743 40.3268C5.24743 40.7959 5.41085 41.2182 5.71893 41.5749L6.52157 40.8817C6.37291 40.7096 6.30796 40.5309 6.30796 40.3268H5.24743ZM5.73626 41.594C6.00932 41.8807 6.34187 42.1516 6.72756 42.4087L7.31584 41.5263C6.98037 41.3026 6.71196 41.0807 6.50423 40.8626L5.73626 41.594ZM6.72756 42.4087C7.09715 42.6551 7.49026 42.9007 7.9067 43.1457L8.44442 42.2316C8.04354 41.9958 7.66742 41.7607 7.31584 41.5263L6.72756 42.4087ZM7.9067 43.1457C8.29415 43.3736 8.65785 43.6237 8.99816 43.896L9.66067 43.0679C9.27982 42.7632 8.87429 42.4845 8.44442 42.2316L7.9067 43.1457ZM8.9989 43.8966C9.72907 44.4786 10.0432 45.1114 10.0432 45.8077H11.1037C11.1037 44.7251 10.5884 43.8074 9.65994 43.0673L8.9989 43.8966ZM10.0432 45.8077C10.0432 46.3073 9.9099 46.7687 9.63756 47.2024L10.5357 47.7664C10.9124 47.1664 11.1037 46.51 11.1037 45.8077H10.0432ZM9.63577 47.2053C9.36412 47.6441 8.99494 48.0318 8.5192 48.367L9.13001 49.234C9.71198 48.824 10.1842 48.3343 10.5375 47.7635L9.63577 47.2053ZM8.5181 48.3678C7.46108 49.1165 6.22999 49.4962 4.80413 49.4962V50.5567C6.43119 50.5567 7.88042 50.1191 9.13111 49.2332L8.5181 48.3678ZM4.80413 49.4962C3.60749 49.4962 2.78649 49.3018 2.27187 48.9814L1.71132 49.8817C2.47076 50.3545 3.52478 50.5567 4.80413 50.5567V49.4962ZM2.27792 48.9852C1.75201 48.6478 1.56632 48.2877 1.56632 47.899H0.505792C0.505792 48.7364 0.957134 49.3979 1.70528 49.8778L2.27792 48.9852ZM1.56632 47.899C1.56632 47.4172 1.66071 47.0788 1.80618 46.8452C1.94592 46.6209 2.15769 46.4525 2.47954 46.3482L2.1527 45.3393C1.62117 45.5115 1.19291 45.8238 0.905966 46.2846C0.624748 46.7361 0.505792 47.2871 0.505792 47.899H1.56632ZM2.49129 46.3442C2.65729 46.2861 2.89387 46.2478 3.21757 46.2478V45.1873C2.82011 45.1873 2.45572 45.2331 2.14095 45.3432L2.49129 46.3442ZM3.21757 46.2478C3.51573 46.2478 3.84952 46.3103 4.22286 46.449L4.59212 45.4548C4.1241 45.281 3.66461 45.1873 3.21757 45.1873V46.2478ZM3.91351 45.7591C3.70166 46.302 3.58876 46.8363 3.58876 47.3582H4.64929C4.64929 46.9906 4.7287 46.5874 4.90147 46.1447L3.91351 45.7591ZM3.58876 47.3582C3.58876 47.8859 3.67986 48.3768 3.94408 48.7476C4.23186 49.1515 4.66423 49.3308 5.14668 49.3308V48.2702C4.94403 48.2702 4.86257 48.2091 4.8078 48.1322C4.72946 48.0223 4.64929 47.792 4.64929 47.3582H3.58876ZM5.14668 49.3308C5.73474 49.3308 6.26099 49.1114 6.70936 48.7079L5.9999 47.9196C5.7271 48.1651 5.44805 48.2702 5.14668 48.2702V49.3308ZM6.70289 48.7136C7.14633 48.3274 7.44379 47.8508 7.44379 47.2861H6.38326C6.38326 47.4425 6.30812 47.651 6.00636 47.9139L6.70289 48.7136ZM7.44379 47.2861C7.44379 46.7877 7.2785 46.3403 6.94531 45.9738L6.16058 46.6872C6.30816 46.8496 6.38326 47.0392 6.38326 47.2861H7.44379ZM6.95426 45.9839C6.68247 45.6692 6.34675 45.3992 5.95572 45.1699L5.41939 46.0848C5.72548 46.2643 5.96669 46.463 6.15163 46.6771L6.95426 45.9839ZM5.96719 45.1769C5.60339 44.951 5.21044 44.7329 4.78886 44.5221L4.31458 45.4707C4.71032 45.6685 5.07459 45.871 5.40791 46.0779L5.96719 45.1769ZM4.79456 44.525C4.43231 44.3384 4.09159 44.1131 3.772 43.8487L3.09584 44.6657C3.47338 44.9781 3.87785 45.2457 4.30888 45.4678L4.79456 44.525ZM3.76739 43.8449C3.07544 43.2852 2.73821 42.5778 2.73821 41.679H1.67768C1.67768 42.8957 2.15777 43.907 3.10045 44.6695L3.76739 43.8449ZM2.73821 41.679C2.73821 41.085 2.88272 40.5787 3.16012 40.1428L2.26539 39.5734C1.86971 40.1952 1.67768 40.9028 1.67768 41.679H2.73821ZM3.16299 40.1382C3.45875 39.6629 3.84374 39.2666 4.32302 38.9471L3.73474 38.0647C3.13228 38.4664 2.63986 38.9715 2.26253 39.578L3.16299 40.1382ZM4.32639 38.9449C5.31923 38.2719 6.4173 37.9364 7.63469 37.9364V36.8759C6.20782 36.8759 4.90201 37.2735 3.73137 38.067L4.32639 38.9449ZM7.63469 37.9364C8.93664 37.9364 9.8011 38.1337 10.3112 38.4512L10.8717 37.551C10.1077 37.0753 9.00103 36.8759 7.63469 36.8759V37.9364ZM10.3149 38.4536C10.8308 38.7688 11.0348 39.1442 11.0348 39.6057H12.0953C12.0953 38.721 11.6502 38.0267 10.868 37.5486L10.3149 38.4536ZM11.0348 39.6057C11.0348 40.0352 10.8781 40.3651 10.5447 40.6371L11.2151 41.4589C11.7952 40.9857 12.0953 40.3541 12.0953 39.6057H11.0348ZM10.5517 40.6315C10.2436 40.8743 9.91923 40.9865 9.5638 40.9865V42.047C10.1699 42.047 10.723 41.8467 11.2081 41.4645L10.5517 40.6315ZM9.5638 40.9865C9.12416 40.9865 8.77951 40.9312 8.51617 40.8371L8.15947 41.8358C8.56922 41.9822 9.04188 42.047 9.5638 42.047V40.9865ZM19.2426 46.619L19.5407 46.1805L19.0791 45.8665L18.7893 46.3438L19.2426 46.619ZM19.3507 48.7104L19.7665 49.0395L19.3507 48.7104ZM18.4493 49.4315L18.6923 49.9028L18.6925 49.9027L18.4493 49.4315ZM14.0682 49.756L13.882 50.2526L13.886 50.254L14.0682 49.756ZM12.8603 48.9808L13.2421 48.6127L13.2352 48.6058L12.8603 48.9808ZM13.3831 41.8954L13.779 42.2482L13.7795 42.2477L13.3831 41.8954ZM20.2883 40.8317L20.6334 40.4291L20.6319 40.4278L20.2883 40.8317ZM15.4384 45.4291V44.8988H14.9835L14.9143 45.3484L15.4384 45.4291ZM15.7269 47.4483L15.3722 47.8425L15.3825 47.8517L15.3933 47.8605L15.7269 47.4483ZM18.1969 47.4483L18.4043 47.9364L18.4101 47.9339L18.1969 47.4483ZM15.5646 44.6538L15.0429 44.5594L14.9298 45.1841H15.5646V44.6538ZM17.5839 43.8605L17.2044 43.49L17.196 43.499L17.5839 43.8605ZM18.1608 41.2644L17.7092 41.5423L17.722 41.563L17.7366 41.5825L18.1608 41.2644ZM17.1332 41.1562L17.3421 41.6436L17.3498 41.6403L17.3574 41.6367L17.1332 41.1562ZM16.6103 41.661L17.0366 41.9764L17.0427 41.9682L17.0485 41.9597L16.6103 41.661ZM18.9444 47.0575C19.0622 47.1376 19.163 47.2786 19.163 47.6106H20.2236C20.2236 47.0291 20.0239 46.5091 19.5407 46.1805L18.9444 47.0575ZM19.163 47.6106C19.163 47.9616 19.0747 48.2048 18.935 48.3812L19.7665 49.0395C20.0836 48.639 20.2236 48.149 20.2236 47.6106H19.163ZM18.935 48.3812C18.7595 48.6029 18.5211 48.7977 18.2061 48.9603L18.6925 49.9027C19.1227 49.6807 19.4853 49.3948 19.7665 49.0395L18.935 48.3812ZM18.2063 48.9602C17.5088 49.3199 16.7925 49.4962 16.0514 49.4962V50.5567C16.969 50.5567 17.8513 50.3365 18.6923 49.9028L18.2063 48.9602ZM16.0514 49.4962C15.2524 49.4962 14.661 49.4083 14.2504 49.2581L13.886 50.254C14.461 50.4644 15.1918 50.5567 16.0514 50.5567V49.4962ZM14.2544 49.2595C13.8402 49.1042 13.5065 48.887 13.242 48.6127L12.4786 49.3489C12.8631 49.7476 13.3347 50.0473 13.8821 50.2525L14.2544 49.2595ZM13.2352 48.6058C12.7245 48.0951 12.435 47.3449 12.435 46.2764H11.3745C11.3745 47.5398 11.722 48.5924 12.4853 49.3557L13.2352 48.6058ZM12.435 46.2764C12.435 44.561 12.8984 43.2362 13.779 42.2482L12.9873 41.5426C11.8967 42.7661 11.3745 44.362 11.3745 46.2764H12.435ZM13.7795 42.2477C14.7205 41.189 16.0147 40.6408 17.7281 40.6408V39.5802C15.7636 39.5802 14.1612 40.2219 12.9868 41.5431L13.7795 42.2477ZM17.7281 40.6408C18.8089 40.6408 19.5155 40.8703 19.9446 41.2355L20.6319 40.4278C19.9312 39.8314 18.931 39.5802 17.7281 39.5802V40.6408ZM19.9432 41.2343C20.2381 41.4871 20.389 41.8107 20.389 42.256H21.4495C21.4495 41.5233 21.1797 40.8974 20.6334 40.4291L19.9432 41.2343ZM20.389 42.256C20.389 43.1249 20.0327 43.7431 19.2834 44.1769C18.49 44.6362 17.2316 44.8988 15.4384 44.8988V45.9593C17.2992 45.9593 18.7812 45.6931 19.8148 45.0947C20.8924 44.4708 21.4495 43.5024 21.4495 42.256H20.389ZM14.9143 45.3484C14.8629 45.6826 14.8361 45.9984 14.8361 46.2945H15.8966C15.8966 46.0616 15.9178 45.8005 15.9625 45.5097L14.9143 45.3484ZM14.8361 46.2945C14.8361 46.8963 14.9621 47.4734 15.3722 47.8425L16.0816 47.0542C16.0109 46.9905 15.8966 46.7984 15.8966 46.2945H14.8361ZM15.3933 47.8605C15.7719 48.167 16.261 48.2851 16.7906 48.2851V47.2245C16.4068 47.2245 16.1867 47.1383 16.0606 47.0362L15.3933 47.8605ZM16.7906 48.2851C17.3282 48.2851 17.8673 48.1646 18.4043 47.9363L17.9895 46.9603C17.5649 47.1407 17.1666 47.2245 16.7906 47.2245V48.2851ZM18.4101 47.9339C18.9668 47.6894 19.4176 47.3524 19.6958 46.8942L18.7893 46.3438C18.6589 46.5586 18.4125 46.7745 17.9837 46.9628L18.4101 47.9339ZM15.5646 45.1841C16.5363 45.1841 17.3606 44.878 17.9718 44.222L17.196 43.499C16.8216 43.9008 16.2998 44.1236 15.5646 44.1236V45.1841ZM17.9633 44.231C18.5667 43.6129 18.8534 42.8179 18.8534 41.8954H17.7928C17.7928 42.5835 17.5867 43.0986 17.2045 43.4901L17.9633 44.231ZM18.8534 41.8954C18.8534 41.5619 18.7901 41.2196 18.585 40.9462L17.7366 41.5825C17.7479 41.5976 17.7928 41.676 17.7928 41.8954H18.8534ZM18.6124 40.9864C18.4074 40.6532 18.0736 40.4997 17.7101 40.4997V41.5602C17.7275 41.5602 17.7366 41.5619 17.7391 41.5625C17.7413 41.563 17.7379 41.5624 17.7314 41.559C17.7247 41.5555 17.7182 41.5509 17.7131 41.546C17.7082 41.5414 17.7073 41.5392 17.7092 41.5423L18.6124 40.9864ZM17.7101 40.4997C17.4304 40.4997 17.1614 40.5579 16.9089 40.6757L17.3574 41.6367C17.4656 41.5862 17.5811 41.5602 17.7101 41.5602V40.4997ZM16.9243 40.6688C16.6169 40.8005 16.3721 41.0691 16.1722 41.3623L17.0485 41.9597C17.2092 41.724 17.3129 41.6561 17.3421 41.6436L16.9243 40.6688ZM16.1841 41.3456C15.6648 42.0474 15.299 43.1444 15.0429 44.5594L16.0864 44.7483C16.3351 43.3748 16.6665 42.4766 17.0366 41.9764L16.1841 41.3456ZM22.3116 49.125L21.9143 49.4764L21.922 49.4847L22.3116 49.125ZM21.6986 47.9171L21.1833 48.0428L21.1865 48.0545L21.6986 47.9171ZM21.933 43.6622L22.4292 43.8493L21.933 43.6622ZM23.1049 41.7692L23.4885 42.1353L23.4922 42.1313L23.1049 41.7692ZM28.8021 40.417L28.5807 40.8988L28.7114 40.9589L28.8545 40.9447L28.8021 40.417ZM31.885 40.1105L32.406 40.2094L32.5382 39.5127L31.8326 39.5828L31.885 40.1105ZM30.5509 47.1418L31.0653 47.2704L31.069 47.2557L31.0718 47.2407L30.5509 47.1418ZM30.7312 48.4039L30.3426 48.7647L30.3493 48.7719L30.3562 48.7788L30.7312 48.4039ZM31.3441 48.6923L31.8529 48.8419L32.0333 48.2283L31.3969 48.1647L31.3441 48.6923ZM30.4968 49.6659L30.2446 49.1994L30.2393 49.2024L30.4968 49.6659ZM27.8645 49.738L28.1276 49.2776L28.1221 49.2745L27.8645 49.738ZM27.2335 48.9988L27.7403 48.8429L27.4038 47.7491L26.7869 48.713L27.2335 48.9988ZM26.3321 49.738L26.5579 50.2178L26.3321 49.738ZM23.4114 49.8101L23.575 49.3057L23.4114 49.8101ZM26.1157 41.8052L25.6745 41.5111L25.6687 41.5198L25.6633 41.5287L26.1157 41.8052ZM25.7371 42.6887L26.2402 42.8563L26.2418 42.8514L25.7371 42.6887ZM25.2503 44.7079L24.7311 44.6003L24.7301 44.6051L25.2503 44.7079ZM25.1241 48.5661L24.6555 48.8142L25.1241 48.5661ZM26.5665 48.3317L26.1472 48.0071L26.1456 48.0091L26.5665 48.3317ZM27.1614 46.7993L26.6396 46.7049L26.6384 46.7121L27.1614 46.7993ZM28.1169 41.5168L28.6387 41.6112L28.6929 41.312L28.462 41.1142L28.1169 41.5168ZM26.5845 41.3365L26.3349 40.8686L26.3281 40.8722L26.3214 40.8761L26.5845 41.3365ZM22.7088 48.7737C22.4975 48.5348 22.3264 48.2106 22.2108 47.7797L21.1865 48.0545C21.3353 48.6091 21.5728 49.0902 21.9144 49.4764L22.7088 48.7737ZM22.2138 47.7914C22.1077 47.3565 22.0486 46.7545 22.0486 45.9699H20.9881C20.9881 46.7959 21.0491 47.4921 21.1834 48.0427L22.2138 47.7914ZM22.0486 45.9699C22.0486 45.2267 22.1759 44.521 22.4292 43.8493L21.4368 43.4751C21.1372 44.2698 20.9881 45.1025 20.9881 45.9699H22.0486ZM22.4292 43.8493C22.6823 43.1779 23.0363 42.609 23.4884 42.1353L22.7213 41.403C22.1639 41.987 21.7366 42.6802 21.4368 43.4751L22.4292 43.8493ZM23.4922 42.1313C24.4124 41.147 25.6349 40.6408 27.2155 40.6408V39.5802C25.3826 39.5802 23.8647 40.1798 22.7175 41.4071L23.4922 42.1313ZM27.2155 40.6408C27.7708 40.6408 28.2206 40.7334 28.5807 40.8988L29.0234 39.9352C28.4941 39.6919 27.8862 39.5802 27.2155 39.5802V40.6408ZM28.8545 40.9447L31.9375 40.6382L31.8326 39.5828L28.7496 39.8893L28.8545 40.9447ZM31.364 40.0117L30.0299 47.043L31.0718 47.2407L32.406 40.2094L31.364 40.0117ZM30.0364 47.0132C29.9847 47.22 29.9665 47.475 29.9665 47.7548H31.027C31.027 47.5057 31.0449 47.3521 31.0653 47.2704L30.0364 47.0132ZM29.9665 47.7548C29.9665 48.1313 30.0815 48.4835 30.3426 48.7647L31.1197 48.043C31.0683 47.9877 31.027 47.9071 31.027 47.7548H29.9665ZM30.3562 48.7788C30.6125 49.0351 30.9312 49.1839 31.2914 49.22L31.3969 48.1647C31.2763 48.1526 31.1864 48.1092 31.1061 48.0289L30.3562 48.7788ZM30.8354 48.5427C30.7625 48.7908 30.59 49.0127 30.2446 49.1994L30.7489 50.1324C31.293 49.8383 31.6854 49.4112 31.8529 48.8419L30.8354 48.5427ZM30.2393 49.2024C29.885 49.3992 29.5108 49.4962 29.1085 49.4962V50.5567C29.6919 50.5567 30.2432 50.4134 30.7543 50.1294L30.2393 49.2024ZM29.1085 49.4962C28.6835 49.4962 28.3651 49.4133 28.1276 49.2776L27.6015 50.1984C28.0371 50.4473 28.5481 50.5567 29.1085 50.5567V49.4962ZM28.1221 49.2745C27.8997 49.1509 27.7907 49.0065 27.7403 48.8429L26.7267 49.1548C26.8687 49.6161 27.1803 49.9645 27.607 50.2015L28.1221 49.2745ZM26.7869 48.713C26.6611 48.9095 26.4484 49.0972 26.1063 49.2582L26.5579 50.2178C27.0331 49.9942 27.4213 49.6891 27.6802 49.2847L26.7869 48.713ZM26.1063 49.2582C25.7823 49.4107 25.3817 49.4962 24.8898 49.4962V50.5567C25.5036 50.5567 26.0646 50.45 26.5579 50.2178L26.1063 49.2582ZM24.8898 49.4962C24.3959 49.4962 23.9593 49.4304 23.575 49.3057L23.2478 50.3145C23.7529 50.4783 24.3019 50.5567 24.8898 50.5567V49.4962ZM23.575 49.3057C23.208 49.1867 22.922 49.0045 22.7012 48.7654L21.922 49.4847C22.2781 49.8705 22.7254 50.1451 23.2478 50.3145L23.575 49.3057ZM25.6633 41.5287C25.5008 41.7946 25.3594 42.1325 25.2325 42.5259L26.2418 42.8514C26.3553 42.4996 26.4662 42.2486 26.5682 42.0817L25.6633 41.5287ZM25.2341 42.521C25.1027 42.915 24.935 43.6169 24.7311 44.6003L25.7696 44.8156C25.9743 43.8277 26.1311 43.1834 26.2402 42.8563L25.2341 42.521ZM24.7301 44.6051C24.5337 45.5996 24.4316 46.4712 24.4316 47.2139H25.4921C25.4921 46.5624 25.5824 45.7633 25.7705 44.8107L24.7301 44.6051ZM24.4316 47.2139C24.4316 47.5737 24.4454 47.8837 24.4759 48.138C24.5047 48.378 24.5539 48.6224 24.6555 48.8142L25.5928 48.318C25.5929 48.3182 25.582 48.2964 25.5678 48.2392C25.5542 48.1843 25.5407 48.1095 25.5289 48.0117C25.5053 47.8152 25.4921 47.5513 25.4921 47.2139H24.4316ZM24.6555 48.8142C24.8333 49.15 25.1427 49.4029 25.5749 49.4029V48.3424C25.5742 48.3424 25.5801 48.3423 25.5901 48.3453C25.6003 48.3484 25.6094 48.353 25.6161 48.3575C25.6293 48.3665 25.6172 48.3641 25.5928 48.318L24.6555 48.8142ZM25.5749 49.4029C26.1554 49.4029 26.631 49.1191 26.9873 48.6544L26.1456 48.0091C25.9491 48.2655 25.7636 48.3424 25.5749 48.3424V49.4029ZM26.9857 48.6564C27.3449 48.1924 27.5673 47.5896 27.6845 46.8865L26.6384 46.7121C26.5392 47.3071 26.3649 47.7259 26.1472 48.0071L26.9857 48.6564ZM27.6832 46.8937L28.6387 41.6112L27.5952 41.4224L26.6396 46.7049L27.6832 46.8937ZM28.462 41.1142C28.1245 40.8248 27.7284 40.662 27.2876 40.662V41.7225C27.4478 41.7225 27.6046 41.776 27.7719 41.9194L28.462 41.1142ZM27.2876 40.662C26.9458 40.662 26.6171 40.7181 26.3349 40.8686L26.834 41.8044C26.9124 41.7625 27.0525 41.7225 27.2876 41.7225V40.662ZM26.3214 40.8761C26.0615 41.0246 25.8495 41.2486 25.6745 41.5111L26.5569 42.0994C26.6704 41.9292 26.7709 41.8407 26.8476 41.7969L26.3214 40.8761ZM38.5004 44.5997L38.0382 44.3398L37.8411 44.6903L38.1255 44.9747L38.5004 44.5997ZM37.7071 42.2379L38.155 42.522L38.1599 42.514L37.7071 42.2379ZM37.0941 43.9327L37.6175 44.0182L37.6185 44.0118L37.0941 43.9327ZM36.1566 49.6659L36.2076 50.1937L36.6141 50.1544L36.68 49.7515L36.1566 49.6659ZM32.4246 50.0265L31.9039 49.9263L31.7699 50.6225L32.4756 50.5543L32.4246 50.0265ZM34.2636 40.4711L34.1998 39.9447L33.8159 39.9912L33.7429 40.3709L34.2636 40.4711ZM37.2384 40.1105L37.7604 40.2035L37.8862 39.4978L37.1746 39.5841L37.2384 40.1105ZM36.9139 41.9314L36.3918 41.8384L37.3909 42.1629L36.9139 41.9314ZM41.3851 40.6514L41.0163 41.0325L41.0224 41.0382L41.3851 40.6514ZM41.2228 44.1129L40.8573 43.7287L40.8526 43.7333L41.2228 44.1129ZM38.9626 44.8597C39.434 44.0216 39.6797 43.1576 39.6797 42.274H38.6192C38.6192 42.9529 38.4322 43.6394 38.0382 44.3398L38.9626 44.8597ZM39.6797 42.274C39.6797 41.9677 39.6274 41.6425 39.4399 41.3824C39.2292 41.0902 38.9143 40.9685 38.5906 40.9685V42.029C38.6227 42.029 38.6255 42.0345 38.6125 42.0285C38.5967 42.0212 38.5844 42.0093 38.5796 42.0026C38.5771 41.9992 38.5878 42.0126 38.5989 42.0587C38.6101 42.1051 38.6192 42.1749 38.6192 42.274H39.6797ZM38.5906 40.9685C38.2859 40.9685 38.0239 41.1004 37.8131 41.2769C37.6051 41.4509 37.4212 41.6884 37.2544 41.9619L38.1599 42.514C38.2936 42.2947 38.4071 42.1626 38.4936 42.0902C38.5773 42.0202 38.6067 42.029 38.5906 42.029V40.9685ZM37.2593 41.9539C36.9034 42.5152 36.6758 43.1513 36.5698 43.8535L37.6185 44.0118C37.7048 43.44 37.8858 42.9463 38.1549 42.5219L37.2593 41.9539ZM36.5708 43.8471L35.6333 49.5803L36.68 49.7515L37.6175 44.0182L36.5708 43.8471ZM36.1056 49.1381L32.3736 49.4987L32.4756 50.5543L36.2076 50.1937L36.1056 49.1381ZM32.9453 50.1267L34.7843 40.5713L33.7429 40.3709L31.9039 49.9263L32.9453 50.1267ZM34.3274 40.9975L37.3022 40.6369L37.1746 39.5841L34.1998 39.9447L34.3274 40.9975ZM36.7163 40.0175L36.3918 41.8384L37.4359 42.0245L37.7604 40.2035L36.7163 40.0175ZM37.3909 42.1629C37.6508 41.6273 37.9766 41.2547 38.3565 41.0133C38.7359 40.7724 39.2029 40.6408 39.7805 40.6408V39.5802C39.0359 39.5802 38.3641 39.7521 37.7879 40.1181C37.2123 40.4838 36.7659 41.0216 36.4368 41.7L37.3909 42.1629ZM39.7805 40.6408C40.3886 40.6408 40.7727 40.7967 41.0163 41.0324L41.7538 40.2703C41.2522 39.7849 40.5666 39.5802 39.7805 39.5802V40.6408ZM41.0224 41.0382C41.262 41.2629 41.4317 41.6495 41.4317 42.31H42.4923C42.4923 41.4802 42.2773 40.761 41.7477 40.2645L41.0224 41.0382ZM41.4317 42.31C41.4317 42.9106 41.2361 43.3685 40.8573 43.7287L41.5883 44.4972C42.1951 43.9199 42.4923 43.1758 42.4923 42.31H41.4317ZM40.8526 43.7333C40.493 44.0839 39.983 44.2858 39.2576 44.2858V45.3463C40.1909 45.3463 40.991 45.0795 41.593 44.4926L40.8526 43.7333ZM39.2576 44.2858C39.1096 44.2858 39.0085 44.2707 38.9436 44.2521C38.8798 44.2339 38.868 44.2174 38.8754 44.2248L38.1255 44.9747C38.4224 45.2716 38.8558 45.3463 39.2576 45.3463V44.2858ZM48.1367 43.7343L47.6483 43.5277L47.4544 43.9861L47.8995 44.2086L48.1367 43.7343ZM48.3891 42.6887L47.8626 42.6248L47.8618 42.632L47.8611 42.6392L48.3891 42.6887ZM47.1631 41.6249L46.7728 41.2658L46.765 41.2746L47.1631 41.6249ZM46.4239 42.7788L45.9471 42.5465L45.9434 42.5546L46.4239 42.7788ZM46.0092 47.3582L45.6003 47.696L45.6079 47.7048L46.0092 47.3582ZM48.984 46.8894L49.3669 47.2563L49.376 47.2467L49.3847 47.2367L48.984 46.8894ZM49.3446 46.3125L49.5916 45.8433L49.0761 45.5719L48.8543 46.1106L49.3446 46.3125ZM48.9119 49.3414L49.1826 49.7973L49.1836 49.7967L48.9119 49.3414ZM43.8638 41.6971L44.2408 42.0699L44.243 42.0677L43.8638 41.6971ZM50.5812 42.1658C50.5812 42.4955 50.4563 42.7492 50.1642 42.9661L50.7966 43.8175C51.346 43.4094 51.6417 42.8458 51.6417 42.1658H50.5812ZM50.1642 42.9661C49.8595 43.1925 49.4279 43.3303 48.8218 43.3303V44.3908C49.5858 44.3908 50.26 44.2161 50.7966 43.8175L50.1642 42.9661ZM48.8218 43.3303C48.5758 43.3303 48.4396 43.2929 48.3738 43.2601L47.8995 44.2086C48.1703 44.344 48.4908 44.3908 48.8218 44.3908V43.3303ZM48.625 43.941C48.7811 43.572 48.8766 43.1695 48.917 42.7381L47.8611 42.6392C47.8294 42.977 47.7566 43.2716 47.6483 43.5277L48.625 43.941ZM48.9155 42.7525C48.9623 42.366 48.9914 42.0784 48.9914 41.9314H47.9309C47.9309 42.0008 47.912 42.218 47.8626 42.6248L48.9155 42.7525ZM48.9914 41.9314C48.9914 41.6344 48.9431 41.3176 48.7668 41.0622C48.566 40.7713 48.2593 40.6439 47.9383 40.6439V41.7045C47.9615 41.7045 47.9561 41.7085 47.9365 41.6991C47.9145 41.6884 47.8997 41.6728 47.8941 41.6648C47.8909 41.6602 47.9011 41.673 47.9117 41.7191C47.9223 41.7651 47.9309 41.8341 47.9309 41.9314H48.9914ZM47.9383 40.6439C47.4737 40.6439 47.0831 40.9287 46.7728 41.2659L47.5533 41.984C47.796 41.7202 47.9221 41.7045 47.9383 41.7045V40.6439ZM46.765 41.2746C46.4614 41.6196 46.1905 42.0472 45.9472 42.5466L46.9006 43.011C47.1141 42.5729 47.3359 42.2312 47.5612 41.9752L46.765 41.2746ZM45.9434 42.5546C45.4088 43.7 45.1364 44.8639 45.1364 46.0421H46.1969C46.1969 45.0326 46.4293 44.0211 46.9044 43.003L45.9434 42.5546ZM45.1364 46.0421C45.1364 46.6897 45.2557 47.2786 45.6004 47.6959L46.418 47.0205C46.306 46.8848 46.1969 46.5963 46.1969 46.0421H45.1364ZM45.6079 47.7048C45.9753 48.1302 46.5205 48.2851 47.109 48.2851V47.2245C46.6879 47.2245 46.4998 47.115 46.4105 47.0116L45.6079 47.7048ZM47.109 48.2851C47.9723 48.2851 48.7299 47.9209 49.3669 47.2563L48.6012 46.5225C48.1323 47.0118 47.64 47.2245 47.109 47.2245V48.2851ZM49.3847 47.2367C49.5755 47.0166 49.7273 46.7758 49.8349 46.5144L48.8543 46.1106C48.7936 46.2579 48.705 46.4017 48.5833 46.5421L49.3847 47.2367ZM49.0976 46.7817C49.3293 46.9037 49.4994 47.1355 49.4994 47.6647H50.56C50.56 46.8717 50.2734 46.2021 49.5916 45.8433L49.0976 46.7817ZM49.4994 47.6647C49.4994 48.0965 49.2781 48.5053 48.6402 48.886L49.1836 49.7967C50.0361 49.288 50.56 48.579 50.56 47.6647H49.4994ZM48.6412 48.8854C47.9788 49.2787 47.0836 49.4962 45.9191 49.4962V50.5567C47.2065 50.5567 48.3066 50.3175 49.1826 49.7973L48.6412 48.8854ZM45.9191 49.4962C44.7889 49.4962 44.0366 49.1984 43.5597 48.6934C43.0774 48.1826 42.7895 47.3679 42.7895 46.1502H41.7289C41.7289 47.5167 42.0509 48.6401 42.7886 49.4215C43.5317 50.2085 44.6093 50.5567 45.9191 50.5567V49.4962ZM42.7895 46.1502C42.7895 44.3673 43.2917 43.0297 44.2408 42.0699L43.4867 41.3242C42.2964 42.5279 41.7289 44.1591 41.7289 46.1502H42.7895ZM44.243 42.0677C45.1506 41.139 46.4639 40.6408 48.2629 40.6408V39.5802C46.2636 39.5802 44.6443 40.1397 43.4845 41.3264L44.243 42.0677ZM48.2629 40.6408C49.1645 40.6408 49.7452 40.8063 50.089 41.0543C50.4008 41.2793 50.5812 41.618 50.5812 42.1658H51.6417C51.6417 41.3434 51.3473 40.6544 50.7096 40.1943C50.1039 39.7573 49.2603 39.5802 48.2629 39.5802V40.6408ZM61.4705 48.6923L61.9788 48.8434L62.1311 48.3312L61.6177 48.1829L61.4705 48.6923ZM60.497 49.72L60.2733 49.2392L60.2705 49.2405L60.497 49.72ZM58.045 49.8282L58.2911 49.3583L58.2822 49.3539L58.045 49.8282ZM57.4861 49.3414L57.9313 49.0533L57.9268 49.0463L57.9221 49.0395L57.4861 49.3414ZM57.4501 46.024L57.9701 46.128L57.9715 46.1201L57.4501 46.024ZM57.7025 44.6538L57.182 44.5521L57.181 44.5578L57.7025 44.6538ZM56.2962 42.5264L56.779 42.7458L56.7818 42.7394L56.2962 42.5264ZM55.9897 43.518L55.4709 43.4079L55.4697 43.4143L55.9897 43.518ZM54.7637 49.6659L54.8162 50.1936L55.207 50.1547L55.2838 49.7696L54.7637 49.6659ZM51.1399 50.0265L50.6195 49.9246L50.4824 50.6248L51.1924 50.5541L51.1399 50.0265ZM53.682 37.0456L53.6295 36.5179L53.2373 36.5569L53.1616 36.9437L53.682 37.0456ZM57.3058 36.685L57.8258 36.789L57.9663 36.0864L57.2533 36.1573L57.3058 36.685ZM57.1616 37.4061L56.6415 37.3021L56.6399 37.3113L57.1616 37.4061ZM56.2241 41.1201L55.7426 40.8979L56.599 41.4951L56.2241 41.1201ZM61.4165 41.4086L60.9054 41.5506L60.9092 41.563L61.4165 41.4086ZM61.5066 42.8329L60.9804 42.7671L60.9785 42.7823L60.9775 42.7976L61.5066 42.8329ZM61.3984 43.6081L61.9202 43.7024L61.9204 43.7014L61.3984 43.6081ZM61.164 44.9062L61.6838 45.012L61.6859 45.0004L61.164 44.9062ZM60.7494 46.9435L61.2676 47.0562L61.269 47.0493L60.7494 46.9435ZM60.129 47.6647C60.129 48.0223 60.2221 48.3634 60.4459 48.6468C60.6672 48.9271 60.9774 49.1018 61.3234 49.2018L61.6177 48.1829C61.4228 48.1266 61.3274 48.0519 61.2783 47.9896C61.2316 47.9305 61.1895 47.8359 61.1895 47.6647H60.129ZM60.9623 48.5412C60.883 48.8078 60.6866 49.047 60.2733 49.2392L60.7206 50.2008C61.341 49.9122 61.7936 49.4663 61.9788 48.8434L60.9623 48.5412ZM60.2705 49.2405C59.909 49.4112 59.5296 49.4962 59.1268 49.4962V50.5567C59.6855 50.5567 60.2196 50.4374 60.7234 50.1995L60.2705 49.2405ZM59.1268 49.4962C58.6948 49.4962 58.4336 49.4331 58.2911 49.3584L57.799 50.2979C58.1612 50.4876 58.6212 50.5567 59.1268 50.5567V49.4962ZM58.2822 49.3539C58.1174 49.2715 58.0068 49.17 57.9313 49.0533L57.0409 49.6294C57.2299 49.9214 57.4918 50.1444 57.8079 50.3024L58.2822 49.3539ZM57.9221 49.0395C57.7924 48.8522 57.6919 48.5254 57.6919 47.9892H56.6313C56.6313 48.6309 56.7471 49.2055 57.0501 49.6432L57.9221 49.0395ZM57.6919 47.9892C57.6919 47.701 57.7765 47.0959 57.97 46.128L56.9301 45.92C56.739 46.8753 56.6313 47.5802 56.6313 47.9892H57.6919ZM57.9715 46.1201L58.224 44.7499L57.181 44.5578L56.9286 45.928L57.9715 46.1201ZM58.2229 44.7555C58.4261 43.7154 58.5392 42.9518 58.5392 42.5084H57.4787C57.4787 42.8342 57.3875 43.5009 57.182 44.5521L58.2229 44.7555ZM58.5392 42.5084C58.5392 42.1403 58.4913 41.78 58.3332 41.4943C58.2497 41.3435 58.1309 41.2056 57.9681 41.1076C57.8045 41.009 57.6256 40.9685 57.4501 40.9685V42.029C57.4608 42.029 57.445 42.0305 57.421 42.0161C57.398 42.0022 57.3957 41.9905 57.4053 42.008C57.4335 42.0589 57.4787 42.2034 57.4787 42.5084H58.5392ZM57.4501 40.9685C56.6598 40.9685 56.1396 41.5633 55.8106 42.3134L56.7818 42.7394C57.0538 42.1192 57.3028 42.029 57.4501 42.029V40.9685ZM55.8135 42.307C55.6725 42.6172 55.5602 42.9872 55.471 43.408L56.5084 43.628C56.5875 43.2555 56.6795 42.9645 56.7789 42.7458L55.8135 42.307ZM55.4697 43.4143L54.2437 49.5622L55.2838 49.7696L56.5097 43.6217L55.4697 43.4143ZM54.7112 49.1382L51.0874 49.4988L51.1924 50.5541L54.8162 50.1936L54.7112 49.1382ZM51.6603 50.1284L54.2024 37.1475L53.1616 36.9437L50.6195 49.9246L51.6603 50.1284ZM53.7345 37.5732L57.3583 37.2126L57.2533 36.1573L53.6295 36.5179L53.7345 37.5732ZM56.7859 36.581L56.6416 37.3022L57.6816 37.5101L57.8258 36.789L56.7859 36.581ZM56.6399 37.3113C56.3021 39.1691 55.9989 40.3427 55.7426 40.8979L56.7055 41.3423C57.0262 40.6475 57.348 39.3451 57.6833 37.501L56.6399 37.3113ZM56.599 41.4951C57.1453 40.9488 57.9493 40.6408 59.0907 40.6408V39.5802C57.7561 39.5802 56.649 39.9453 55.8491 40.7452L56.599 41.4951ZM59.0907 40.6408C59.6953 40.6408 60.1165 40.7419 60.3963 40.8981C60.6586 41.0445 60.8227 41.2525 60.9055 41.5505L61.9274 41.2667C61.7698 40.6993 61.4261 40.2583 60.9132 39.972C60.4177 39.6955 59.7963 39.5802 59.0907 39.5802V40.6408ZM60.9092 41.563C60.981 41.7991 61.0124 42.0051 61.0124 42.1838H62.0729C62.0729 41.8818 62.0201 41.5709 61.9237 41.2542L60.9092 41.563ZM61.0124 42.1838C61.0124 42.4072 61.0012 42.6011 60.9804 42.7671L62.0328 42.8987C62.0601 42.6801 62.0729 42.4412 62.0729 42.1838H61.0124ZM60.9775 42.7976C60.9675 42.9483 60.9355 43.1839 60.8764 43.5149L61.9204 43.7014C61.9815 43.3593 62.0217 43.078 62.0357 42.8682L60.9775 42.7976ZM60.8766 43.5139L60.6422 44.812L61.6859 45.0004L61.9202 43.7024L60.8766 43.5139ZM60.6444 44.8005L60.2298 46.8377L61.269 47.0493L61.6837 45.012L60.6444 44.8005ZM60.2312 46.8309C60.1659 47.1313 60.129 47.4111 60.129 47.6647H61.1895C61.1895 47.5095 61.2127 47.3086 61.2675 47.0562L60.2312 46.8309Z" fill="#FFF2F2" mask="url(#path-1-outside-1_13_226)"/>
<mask id="path-3-outside-2_13_226" maskUnits="userSpaceOnUse" x="30.0484" y="14.2422" width="16" height="18" fill="black">
<rect fill="white" x="30.0484" y="14.2422" width="16" height="18"/>
<path d="M42.6846 25.5822C43.1441 25.8947 43.3739 26.4002 43.3739 27.0988C43.3739 27.7789 43.1993 28.3396 42.85 28.7808C42.5007 29.222 42.0412 29.5896 41.4713 29.8837C40.2948 30.4904 39.0724 30.7937 37.804 30.7937C36.5356 30.7937 35.5246 30.6558 34.7709 30.3801C34.0356 30.1043 33.4198 29.7091 32.9234 29.1944C31.9491 28.2201 31.462 26.8414 31.462 25.0583C31.462 22.2825 32.2157 20.0491 33.7231 18.3579C35.3407 16.538 37.5558 15.6281 40.3684 15.6281C42.1147 15.6281 43.4199 15.9957 44.2838 16.731C44.9272 17.2825 45.2489 18.0086 45.2489 18.9093C45.2489 22.1447 42.4548 23.7623 36.8665 23.7623C36.7929 24.2403 36.7562 24.6815 36.7562 25.0859C36.7562 25.9315 36.94 26.5197 37.3077 26.8506C37.6937 27.1631 38.236 27.3194 38.9345 27.3194C39.6331 27.3194 40.35 27.1631 41.0853 26.8506C41.839 26.5197 42.3721 26.0969 42.6846 25.5822ZM37.0595 22.5767C38.3647 22.5767 39.3941 22.1722 40.1478 21.3634C40.9014 20.5913 41.2783 19.5895 41.2783 18.3579C41.2783 17.9351 41.1956 17.6134 41.0301 17.3928C40.8831 17.1538 40.6533 17.0343 40.3408 17.0343C40.0283 17.0343 39.7342 17.0987 39.4584 17.2273C39.2011 17.3376 38.9345 17.595 38.6588 17.9994C37.9786 18.9185 37.4455 20.4443 37.0595 22.5767Z"/>
</mask>
<path d="M42.6846 25.5822C43.1441 25.8947 43.3739 26.4002 43.3739 27.0988C43.3739 27.7789 43.1993 28.3396 42.85 28.7808C42.5007 29.222 42.0412 29.5896 41.4713 29.8837C40.2948 30.4904 39.0724 30.7937 37.804 30.7937C36.5356 30.7937 35.5246 30.6558 34.7709 30.3801C34.0356 30.1043 33.4198 29.7091 32.9234 29.1944C31.9491 28.2201 31.462 26.8414 31.462 25.0583C31.462 22.2825 32.2157 20.0491 33.7231 18.3579C35.3407 16.538 37.5558 15.6281 40.3684 15.6281C42.1147 15.6281 43.4199 15.9957 44.2838 16.731C44.9272 17.2825 45.2489 18.0086 45.2489 18.9093C45.2489 22.1447 42.4548 23.7623 36.8665 23.7623C36.7929 24.2403 36.7562 24.6815 36.7562 25.0859C36.7562 25.9315 36.94 26.5197 37.3077 26.8506C37.6937 27.1631 38.236 27.3194 38.9345 27.3194C39.6331 27.3194 40.35 27.1631 41.0853 26.8506C41.839 26.5197 42.3721 26.0969 42.6846 25.5822ZM37.0595 22.5767C38.3647 22.5767 39.3941 22.1722 40.1478 21.3634C40.9014 20.5913 41.2783 19.5895 41.2783 18.3579C41.2783 17.9351 41.1956 17.6134 41.0301 17.3928C40.8831 17.1538 40.6533 17.0343 40.3408 17.0343C40.0283 17.0343 39.7342 17.0987 39.4584 17.2273C39.2011 17.3376 38.9345 17.595 38.6588 17.9994C37.9786 18.9185 37.4455 20.4443 37.0595 22.5767Z" fill="url(#paint1_linear_13_226)"/>
<path d="M42.6846 25.5822L42.9827 25.1437L42.521 24.8298L42.2313 25.307L42.6846 25.5822ZM42.85 28.7808L43.2658 29.1099L42.85 28.7808ZM41.4713 29.8837L41.7143 30.355L41.7145 30.3549L41.4713 29.8837ZM34.7709 30.3801L34.5847 30.8766L34.5887 30.878L34.7709 30.3801ZM32.9234 29.1944L33.3052 28.8262L33.2984 28.8194L32.9234 29.1944ZM33.7231 18.3579L34.1189 18.7107L34.1194 18.7102L33.7231 18.3579ZM44.2838 16.731L44.6289 16.3284L44.6275 16.3272L44.2838 16.731ZM36.8665 23.7623V23.2321H36.4116L36.3424 23.6817L36.8665 23.7623ZM37.3077 26.8506L36.9529 27.2447L36.9632 27.254L36.974 27.2628L37.3077 26.8506ZM41.0853 26.8506L41.2927 27.3387L41.2984 27.3361L41.0853 26.8506ZM37.0595 22.5767L36.5377 22.4822L36.4246 23.1069H37.0595V22.5767ZM40.1478 21.3634L39.7682 20.9929L39.7598 21.0019L40.1478 21.3634ZM41.0301 17.3928L40.5785 17.6707L40.5913 17.6914L40.6059 17.7109L41.0301 17.3928ZM39.4584 17.2273L39.6673 17.7147L39.675 17.7114L39.6827 17.7079L39.4584 17.2273ZM38.6588 17.9994L39.085 18.3148L39.0911 18.3066L39.0969 18.2981L38.6588 17.9994ZM42.3864 26.0207C42.6632 26.209 42.8436 26.525 42.8436 27.0988H43.9042C43.9042 26.2755 43.625 25.5805 42.9827 25.1437L42.3864 26.0207ZM42.8436 27.0988C42.8436 27.6852 42.6948 28.1225 42.4342 28.4516L43.2658 29.1099C43.7037 28.5567 43.9042 27.8726 43.9042 27.0988H42.8436ZM42.4342 28.4516C42.1379 28.826 41.7403 29.1481 41.2281 29.4125L41.7145 30.3549C42.342 30.0311 42.8636 29.6179 43.2658 29.1099L42.4342 28.4516ZM41.2283 29.4124C40.1236 29.982 38.9841 30.2634 37.804 30.2634V31.3239C39.1607 31.3239 40.4661 30.9987 41.7143 30.355L41.2283 29.4124ZM37.804 30.2634C36.5659 30.2634 35.6245 30.1277 34.9531 29.8821L34.5887 30.878C35.4246 31.1839 36.5053 31.3239 37.804 31.3239V30.2634ZM34.9571 29.8836C34.2883 29.6328 33.7415 29.2788 33.3051 28.8263L32.5417 29.5625C33.098 30.1394 33.7828 30.5759 34.5847 30.8766L34.9571 29.8836ZM33.2984 28.8194C32.4504 27.9715 31.9923 26.744 31.9923 25.0583H30.9317C30.9317 26.9389 31.4479 28.4688 32.5485 29.5693L33.2984 28.8194ZM31.9923 25.0583C31.9923 22.382 32.7165 20.2841 34.1189 18.7107L33.3272 18.005C31.7148 19.814 30.9317 22.1831 30.9317 25.0583H31.9923ZM34.1194 18.7102C35.6204 17.0215 37.6814 16.1583 40.3684 16.1583V15.0978C37.4303 15.0978 35.0611 16.0545 33.3267 18.0056L34.1194 18.7102ZM40.3684 16.1583C42.0537 16.1583 43.212 16.5152 43.9402 17.1348L44.6275 16.3272C43.6277 15.4763 42.1757 15.0978 40.3684 15.0978V16.1583ZM43.9387 17.1336C44.4564 17.5774 44.7187 18.1523 44.7187 18.9093H45.7792C45.7792 17.8649 45.398 16.9876 44.6289 16.3284L43.9387 17.1336ZM44.7187 18.9093C44.7187 20.3383 44.1205 21.3764 42.8876 22.0902C41.6107 22.8295 39.6268 23.2321 36.8665 23.2321V24.2926C39.6944 24.2926 41.9018 23.8864 43.419 23.008C44.9802 22.1041 45.7792 20.7157 45.7792 18.9093H44.7187ZM36.3424 23.6817C36.2655 24.1813 36.2259 24.6499 36.2259 25.0859H37.2864C37.2864 24.7131 37.3204 24.2992 37.3906 23.843L36.3424 23.6817ZM36.2259 25.0859C36.2259 25.9804 36.4156 26.7612 36.9529 27.2447L37.6624 26.4565C37.4644 26.2783 37.2864 25.8825 37.2864 25.0859H36.2259ZM36.974 27.2628C37.4863 27.6775 38.1631 27.8496 38.9345 27.8496V26.7891C38.3089 26.7891 37.9011 26.6488 37.6413 26.4385L36.974 27.2628ZM38.9345 27.8496C39.7139 27.8496 40.5012 27.675 41.2927 27.3386L40.8779 26.3626C40.1988 26.6512 39.5523 26.7891 38.9345 26.7891V27.8496ZM41.2984 27.3361C42.1161 26.9772 42.7514 26.4938 43.1378 25.8574L42.2313 25.307C41.9927 25.7 41.5618 26.0623 40.8721 26.3651L41.2984 27.3361ZM37.0595 23.1069C38.4829 23.1069 39.6636 22.6608 40.5357 21.7249L39.7598 21.0019C39.1246 21.6836 38.2464 22.0464 37.0595 22.0464V23.1069ZM40.5272 21.7338C41.3915 20.8485 41.8086 19.7067 41.8086 18.3579H40.748C40.748 19.4723 40.4114 20.3342 39.7683 20.993L40.5272 21.7338ZM41.8086 18.3579C41.8086 17.878 41.7166 17.4243 41.4543 17.0746L40.6059 17.7109C40.6745 17.8024 40.748 17.9921 40.748 18.3579H41.8086ZM41.4817 17.1149C41.2258 16.6989 40.8124 16.5041 40.3408 16.5041V17.5646C40.4941 17.5646 40.5404 17.6087 40.5785 17.6707L41.4817 17.1149ZM40.3408 16.5041C39.9529 16.5041 39.5821 16.5845 39.2342 16.7468L39.6827 17.7079C39.8863 17.6128 40.1036 17.5646 40.3408 17.5646V16.5041ZM39.2495 16.7399C38.8531 16.9099 38.516 17.2675 38.2207 17.7007L39.0969 18.2981C39.353 17.9224 39.5491 17.7654 39.6673 17.7147L39.2495 16.7399ZM38.2325 17.684C37.4778 18.7039 36.9275 20.3291 36.5377 22.4822L37.5813 22.6711C37.9636 20.5595 38.4795 19.1331 39.085 18.3148L38.2325 17.684Z" fill="#FFF2F2" mask="url(#path-3-outside-2_13_226)"/>
<path fill-rule="evenodd" clip-rule="evenodd" d="M46.1708 36.2165C35.6681 36.2165 27.1539 28.333 27.1539 18.6083C27.1539 8.88349 35.6681 1 46.1708 1C56.6736 1 65.1878 8.88349 65.1878 18.6083C65.1878 22.6773 63.6971 26.424 61.1939 29.4057L74 41.2633L70.6383 44.376L57.8322 32.5185C54.6119 34.8363 50.5655 36.2165 46.1708 36.2165ZM60.4335 18.6082C60.4335 25.9018 54.0479 31.8144 46.1708 31.8144C38.2938 31.8144 31.9082 25.9018 31.9082 18.6082C31.9082 11.3146 38.2938 5.40201 46.1708 5.40201C54.0479 5.40201 60.4335 11.3146 60.4335 18.6082Z" fill="url(#paint2_linear_13_226)"/>
<path d="M61.1939 29.4057L60.9908 29.2353L60.8284 29.4287L61.0138 29.6003L61.1939 29.4057ZM74 41.2633L74.1801 41.4578L74.3902 41.2633L74.1801 41.0687L74 41.2633ZM70.6383 44.376L70.4581 44.5705L70.6383 44.7373L70.8184 44.5705L70.6383 44.376ZM57.8322 32.5185L58.0123 32.3239L57.8532 32.1766L57.6773 32.3033L57.8322 32.5185ZM26.8888 18.6083C26.8888 28.4983 35.5412 36.4817 46.1708 36.4817V35.9514C35.7949 35.9514 27.419 28.1678 27.419 18.6083H26.8888ZM46.1708 0.734867C35.5412 0.734867 26.8888 8.71822 26.8888 18.6083H27.419C27.419 9.04876 35.7949 1.26513 46.1708 1.26513V0.734867ZM65.4529 18.6083C65.4529 8.71822 56.8004 0.734867 46.1708 0.734867V1.26513C56.5467 1.26513 64.9226 9.04876 64.9226 18.6083H65.4529ZM61.397 29.5762C63.9375 26.5501 65.4529 22.7439 65.4529 18.6083H64.9226C64.9226 22.6108 63.4568 26.298 60.9908 29.2353L61.397 29.5762ZM74.1801 41.0687L61.374 29.2112L61.0138 29.6003L73.8199 41.4578L74.1801 41.0687ZM70.8184 44.5705L74.1801 41.4578L73.8199 41.0687L70.4581 44.1815L70.8184 44.5705ZM57.652 32.713L70.4581 44.5705L70.8184 44.1815L58.0123 32.3239L57.652 32.713ZM46.1708 36.4817C50.6213 36.4817 54.7219 35.0838 57.987 32.7337L57.6773 32.3033C54.5019 34.5888 50.5096 35.9514 46.1708 35.9514V36.4817ZM46.1708 32.0795C54.1747 32.0795 60.6987 26.067 60.6987 18.6082H60.1684C60.1684 25.7365 53.9211 31.5492 46.1708 31.5492V32.0795ZM31.643 18.6082C31.643 26.067 38.1669 32.0795 46.1708 32.0795V31.5492C38.4206 31.5492 32.1733 25.7365 32.1733 18.6082H31.643ZM46.1708 5.13688C38.1669 5.13688 31.643 11.1493 31.643 18.6082H32.1733C32.1733 11.4799 38.4206 5.66714 46.1708 5.66714V5.13688ZM60.6987 18.6082C60.6987 11.1493 54.1747 5.13688 46.1708 5.13688V5.66714C53.9211 5.66714 60.1684 11.4799 60.1684 18.6082H60.6987Z" fill="#FFF2F2"/>
</g>
<defs>
<filter id="filter0_d_13_226" x="0.292979" y="0.734863" width="74.8043" height="53.4685" filterUnits="userSpaceOnUse" color-interpolation-filters="sRGB">
<feFlood flood-opacity="0" result="BackgroundImageFix"/>
<feColorMatrix in="SourceAlpha" type="matrix" values="0 0 0 0 0 0 0 0 0 0 0 0 0 0 0 0 0 0 127 0" result="hardAlpha"/>
<feOffset dy="1.5908"/>
<feGaussianBlur stdDeviation="0.353511"/>
<feComposite in2="hardAlpha" operator="out"/>
<feColorMatrix type="matrix" values="0 0 0 0 0 0 0 0 0 0 0 0 0 0 0 0 0 0 0.25 0"/>
<feBlend mode="normal" in2="BackgroundImageFix" result="effect1_dropShadow_13_226"/>
<feBlend mode="normal" in="SourceGraphic" in2="effect1_dropShadow_13_226" result="shape"/>
</filter>
<linearGradient id="paint0_linear_13_226" x1="64.2784" y1="52.0009" x2="29.1288" y2="-4.68179" gradientUnits="userSpaceOnUse">
<stop stop-color="#FD788C"/>
<stop offset="1" stop-color="#F157A4"/>
</linearGradient>
<linearGradient id="paint1_linear_13_226" x1="47.1331" y1="26.5044" x2="26.709" y2="11.016" gradientUnits="userSpaceOnUse">
<stop stop-color="#FD788C"/>
<stop offset="1" stop-color="#F157A4"/>
</linearGradient>
<linearGradient id="paint2_linear_13_226" x1="74" y1="44.4814" x2="30.7521" y2="-2.22631" gradientUnits="userSpaceOnUse">
<stop stop-color="#FD788C"/>
<stop offset="1" stop-color="#F157A4"/>
</linearGradient>
</defs>
</svg>
